<svg width="324" height="146" viewBox="0 0 324 146" fill="none" xmlns="http://www.w3.org/2000/svg">
<g clip-path="url(#clip0_26_2)">
<g opacity="0.2">
<g filter="url(#filter0_d_26_2)">
<path d="M248.566 126.5H59.4336C55.1532 126.5 53.2904 121.087 56.6642 118.453L88.7265 93.4185C91.9785 90.8792 95.986 89.5 100.112 89.5H207.888C212.014 89.5 216.021 90.8792 219.273 93.4185L251.336 118.453C254.71 121.087 252.847 126.5 248.566 126.5Z" stroke="black" stroke-width="3" shape-rendering="crispEdges"/>
</g>
<path d="M225.791 121.606C214.471 121.606 209.845 111.809 203.938 104.617C200.198 99.8226 191.339 90.755 204.332 91.9015C212.502 92.631 218.901 102.637 223.822 107.744C228.449 112.434 239.08 121.189 225.791 121.71V121.606ZM228.941 118.166C225.791 111.183 210.14 93.3606 200.887 95.2367C207.285 103.262 215.652 121.397 228.941 118.166Z" fill="black"/>
<path d="M82.7479 121.189C69.6559 119.938 81.2672 109.669 85.5 105.083C90.1265 100.393 95.8399 91.5831 106 91.5831C117.517 93.4591 105.487 103.679 101.746 108.265C96.2337 115.248 92.8868 120.772 82.7479 120.98V121.189ZM79.5 117C82.3546 119.042 91.4103 116.499 95.8399 110.975C98.6946 107.431 110.868 95.4333 106 94.5831C96.4517 92.9155 82.7479 110.975 79.5 117Z" fill="black"/>
<path d="M112.491 121.606C95.6587 121.606 116.011 94.5634 123 93C135.403 90.3944 131.096 99.1972 128.832 104.721C125.288 112.955 124.008 121.606 112.294 121.502H112.491V121.606ZM108.357 117.437C114.755 119.834 118.102 118.271 121.449 113.372C123.91 109.724 128.575 100.273 127 96C116.369 95.7915 112.688 109.932 108.16 117.437H108.357Z" fill="black"/>
<path d="M197.934 121.606C187.696 121.606 186.023 114.831 182.676 107.431C180.215 101.803 173.128 92.8395 183.168 91.7972C192.028 90.8592 195.571 101.282 199.115 106.806C202.659 112.538 210.14 121.606 197.737 121.606H197.934ZM181.101 95.3409C184.153 102.428 188.681 124.733 201.871 117.124C197.835 110.766 191.634 92.5268 181.101 95.3409Z" fill="black"/>
<path d="M169.387 121.606C162.103 121.606 160.331 118.896 159.248 113.059C158.166 107.848 155.213 94.2986 161.906 91.9014C172.734 87.9409 173.915 102.011 175.589 107.744C177.558 114.831 180.412 121.606 169.387 121.71V121.606ZM161.709 103.158C162.103 106.701 161.217 114.831 164.367 117.333C168.108 120.355 173.029 118.896 174.112 115.04C174.998 111.913 170.175 96.8001 167.222 95.1324C160.331 91.5888 161.512 99.9268 161.709 102.949V103.158Z" fill="black"/>
<path d="M151.866 105.138C151.177 112.851 152.752 120.98 142.121 121.606C132.375 122.231 132.375 118.062 133.95 110.975C135.328 105.138 136.116 94.1944 143.302 92.0057C153.933 88.8789 151.964 99.1972 151.472 105.138H151.866ZM148.224 105.763C148.617 101.386 151.275 95.7578 145.369 94.8198C139.66 93.8817 139.561 102.949 138.478 106.389C137.1 111.392 132.671 117.854 140.447 118.687C148.913 119.834 147.731 110.662 148.027 105.763H148.224Z" fill="black"/>
</g>
<path d="M129.7 56.7C129.3 57.8 128.6 58.8 127.7 59.2M127.7 61.7C125.4 61.7 123.7 59.6 123.7 56.9C123.7 54.2 127.7 48.2 127.7 48.2C127.7 48.2 131.7 53.3 131.7 56.9C131.7 60.5 129.8 61.7 127.7 61.7Z" stroke="#1600C9" stroke-linecap="round" stroke-linejoin="round"/>
<path d="M112.9 55.9C112.5 57.1 111.7 58.2 110.7 58.6M110.6 61.2C108.1 61.2 106.2 58.9 106.2 56.1C106.2 53.3 110.6 46.9 110.6 46.9C110.6 46.9 115 52.2 115 56.1C115 60 112.9 61.2 110.6 61.2Z" stroke="#55DFFF" stroke-linecap="round" stroke-linejoin="round"/>
<path d="M129.9 79.9C129.5 81.1 128.7 82.2 127.7 82.6M127.6 85.2C125.1 85.2 123.2 82.9 123.2 80.1C123.2 77.3 127.6 70.9 127.6 70.9C127.6 70.9 132 76.2 132 80.1C132 84 129.9 85.2 127.6 85.2Z" stroke="#55DFFF" stroke-linecap="round" stroke-linejoin="round"/>
<path d="M162.9 97.9C162.5 99.1 161.7 100.2 160.7 100.6M160.6 103.2C158.1 103.2 156.2 100.9 156.2 98.1C156.2 95.3 160.6 88.9 160.6 88.9C160.6 88.9 165 94.2 165 98.1C165 102 162.9 103.2 160.6 103.2Z" stroke="#55DFFF" stroke-linecap="round" stroke-linejoin="round"/>
<path d="M202.9 102.9C202.5 104.1 201.7 105.2 200.7 105.6M200.6 108.2C198.1 108.2 196.2 105.9 196.2 103.1C196.2 100.3 200.6 93.9 200.6 93.9C200.6 93.9 205 99.2 205 103.1C205 107 202.9 108.2 200.6 108.2Z" stroke="#55DFFF" stroke-linecap="round" stroke-linejoin="round"/>
<path d="M242.9 104.9C242.5 106.1 241.7 107.2 240.7 107.6M240.6 110.2C238.1 110.2 236.2 107.9 236.2 105.1C236.2 102.3 240.6 95.9 240.6 95.9C240.6 95.9 245 101.2 245 105.1C245 109 242.9 110.2 240.6 110.2Z" stroke="#55DFFF" stroke-linecap="round" stroke-linejoin="round"/>
<path d="M162.6 61.8C162.2 62.9 161.5 63.9 160.6 64.3M160.6 66.9C158.3 66.9 156.6 64.8 156.6 62.1C156.6 59.4 160.6 53.4 160.6 53.4C160.6 53.4 164.6 58.5 164.6 62.1C164.6 65.7 162.7 66.9 160.6 66.9Z" stroke="#1600C9" stroke-linecap="round" stroke-linejoin="round"/>
<path d="M200.6 59.8C200.2 60.9 199.5 61.9 198.6 62.3M198.6 64.9C196.3 64.9 194.6 62.8 194.6 60.1C194.6 57.4 198.6 51.4 198.6 51.4C198.6 51.4 202.6 56.5 202.6 60.1C202.6 63.7 200.7 64.9 198.6 64.9Z" stroke="#1600C9" stroke-linecap="round" stroke-linejoin="round"/>
<path d="M208.6 77.8C208.2 78.9 207.5 79.9 206.6 80.3M206.6 82.9C204.3 82.9 202.6 80.8 202.6 78.1C202.6 75.4 206.6 69.4 206.6 69.4C206.6 69.4 210.6 74.5 210.6 78.1C210.6 81.7 208.7 82.9 206.6 82.9Z" stroke="#1600C9" stroke-linecap="round" stroke-linejoin="round"/>
<path d="M237.6 75.8C237.2 76.9 236.5 77.9 235.6 78.3M235.6 80.9C233.3 80.9 231.6 78.8 231.6 76.1C231.6 73.4 235.6 67.4 235.6 67.4C235.6 67.4 239.6 72.5 239.6 76.1C239.6 79.7 237.7 80.9 235.6 80.9Z" stroke="#1600C9" stroke-linecap="round" stroke-linejoin="round"/>
<path d="M246.6 60.8C246.2 61.9 245.5 62.9 244.6 63.3M244.6 65.9C242.3 65.9 240.6 63.8 240.6 61.1C240.6 58.4 244.6 52.4 244.6 52.4C244.6 52.4 248.6 57.5 248.6 61.1C248.6 64.7 246.7 65.9 244.6 65.9Z" stroke="#1600C9" stroke-linecap="round" stroke-linejoin="round"/>
<path d="M250.6 86.8C250.2 87.9 249.5 88.9 248.6 89.3M248.6 91.9C246.3 91.9 244.6 89.8 244.6 87.1C244.6 84.4 248.6 78.4 248.6 78.4C248.6 78.4 252.6 83.5 252.6 87.1C252.6 90.7 250.7 91.9 248.6 91.9Z" stroke="#1600C9" stroke-linecap="round" stroke-linejoin="round"/>
<path d="M191.6 80.8C191.2 81.9 190.5 82.9 189.6 83.3M189.6 85.9C187.3 85.9 185.6 83.8 185.6 81.1C185.6 78.4 189.6 72.4 189.6 72.4C189.6 72.4 193.6 77.5 193.6 81.1C193.6 84.7 191.7 85.9 189.6 85.9Z" stroke="#1600C9" stroke-linecap="round" stroke-linejoin="round"/>
<path d="M16.8 25.2C16.4 25.2 16 25.2 15.6 25.1C15.2 25.1 14.9 24.9 14.5 24.8V23.7C15 23.9 15.4 24 15.8 24.1C16.2 24.1 16.5 24.2 16.9 24.2C17.3 24.2 17.8 24.2 18 23.9C18.2 23.6 18.4 23.5 18.4 23.1C18.4 22.7 18.2 22.3 17.7 22.1L16.4 21.5C15.9 21.3 15.5 21 15.2 20.6C14.9 20.3 14.8 19.9 14.8 19.4C14.8 18.9 15 18.2 15.4 17.9C15.8 17.6 16.4 17.4 17.1 17.4C17.8 17.4 18.1 17.4 18.5 17.6C18.9 17.8 19.3 18 19.6 18.3L18.8 19.1C18.5 18.8 18.2 18.7 17.9 18.5C17.6 18.4 17.3 18.3 17 18.3C16.7 18.3 16.3 18.3 16.1 18.6C15.9 18.8 15.8 19 15.8 19.4C15.8 19.8 15.8 19.8 16 20C16.1 20.2 16.3 20.3 16.6 20.4L17.7 20.9C18.3 21.2 18.7 21.5 19 21.8C19.3 22.1 19.4 22.6 19.4 23.1C19.4 23.6 19.2 24.3 18.7 24.7C18.3 25 17.6 25.2 16.7 25.2H16.8Z" fill="black"/>
<path d="M20.7 20.4V19.4H25.9V20.4H20.7ZM22.1 22.4V17.7H23.2V22.4H22.1ZM24.6 25.2C23.7 25.2 23.1 25 22.7 24.7C22.3 24.3 22.1 23.8 22.1 23V22H23.2V22.9C23.2 23.4 23.3 23.7 23.5 23.9C23.7 24.1 24.1 24.2 24.6 24.2H25.9V25.2H24.5H24.6Z" fill="black"/>
<path d="M30 25.2C29.2 25.2 28.6 24.9 28.2 24.4C27.8 23.9 27.5 23.2 27.5 22.2C27.5 21.2 27.7 20.5 28.2 20C28.6 19.5 29.2 19.2 30 19.2C30.8 19.2 31.4 19.5 31.8 20C32.2 20.5 32.5 21.2 32.5 22.2C32.5 23.2 32.3 23.9 31.8 24.4C31.4 24.9 30.8 25.2 30 25.2ZM30 24.2C30.4 24.2 30.7 24 31 23.7C31.2 23.4 31.3 22.9 31.3 22.3C31.3 21.7 31.2 21.2 31 20.9C30.8 20.6 30.4 20.4 30 20.4C29.6 20.4 29.3 20.6 29 20.9C28.8 21.2 28.7 21.7 28.7 22.3C28.7 22.9 28.8 23.4 29 23.7C29.2 24 29.6 24.2 30 24.2Z" fill="black"/>
<path d="M33.6 25.1V24.1H37.4V25.1H33.6ZM33.9 20.4V19.4H35.8V20.4H33.9ZM34.9 25.1V19.4H35.8L36 21V25.1H34.9ZM36.1 22.6L35.8 20.8H36.2C36.2 19.8 36.8 19.2 37.8 19.2C38.8 19.2 38.8 19.4 39.1 19.7C39.4 20 39.5 20.6 39.5 21.3H38.4C38.4 20.9 38.4 20.6 38.2 20.4C38.2 20.2 37.9 20.1 37.6 20.1C37.1 20.1 36.8 20.3 36.5 20.7C36.3 21.1 36.1 21.7 36.1 22.5V22.6Z" fill="black"/>
<path d="M40.3 25.1V19.4H41.3V20.6V25.1H40.2H40.3ZM42.4 25.1V20.6C42.4 20.3 42.2 20.1 41.9 20.1C41.6 20.1 41.4 20.4 41.4 20.9L41.1 20.1H41.5C41.5 19.6 41.9 19.3 42.5 19.3C43.1 19.3 43 19.4 43.2 19.6C43.4 19.8 43.5 20.1 43.5 20.5V25.1H42.4ZM44.4 25.1V20.7C44.4 20.3 44.4 20.1 44 20.1C43.6 20.1 43.4 20.4 43.4 20.9L43 20.1H43.4C43.4 19.9 43.4 19.7 43.7 19.5C44 19.3 44.1 19.3 44.4 19.3C44.7 19.3 45.1 19.4 45.3 19.6C45.5 19.8 45.6 20.2 45.6 20.6V25.1H44.4Z" fill="black"/>
<path d="M47.1 25.1L46.5 19.4H47.6L48 24.2L48.7 19.4H49.7L49.2 20.6L48.5 25.1H47H47.1ZM50 25.1L49.3 20.6L48.8 19.4H49.8L50.5 24.2L51 19.4H52.1L51.3 25.1H49.9H50Z" fill="black"/>
<path d="M54.9 25.2C54.3 25.2 53.8 25.1 53.5 24.8C53.2 24.5 53 24.1 53 23.6C53 23.1 53.2 22.5 53.7 22.2C54.1 21.9 54.8 21.7 55.6 21.7H56.5C56.8 21.7 57 21.8 57.2 21.9L57 22.7H55.6C54.6 22.7 54.1 23 54.1 23.6C54.1 24.2 54.1 24 54.4 24.2C54.6 24.3 54.8 24.4 55.1 24.4C55.4 24.4 55.8 24.4 56 24.2C56.2 24.1 56.4 23.9 56.5 23.7C56.6 23.5 56.7 23.3 56.7 23.1V22.5L57 24H56.5L56.7 23.8C56.7 24.1 56.7 24.4 56.5 24.6C56.3 24.8 56.1 25 55.9 25.1C55.6 25.2 55.3 25.3 54.9 25.3V25.2ZM56.9 25.1V23.4L56.7 22.9V21.4C56.7 21 56.7 20.7 56.3 20.6C56 20.4 55.6 20.3 55.1 20.3H53.7V19.3H54.9C55.8 19.3 56.5 19.5 57 19.9C57.5 20.3 57.7 20.9 57.7 21.6V24H58.7V25H56.9V25.1Z" fill="black"/>
<path d="M59.4 20.4V19.4H64.6V20.4H59.4ZM60.8 22.4V17.7H61.9V22.4H60.8ZM63.3 25.2C62.4 25.2 61.8 25 61.4 24.7C61 24.3 60.8 23.8 60.8 23V22H61.9V22.9C61.9 23.4 61.9 23.7 62.2 23.9C62.5 24.1 62.8 24.2 63.3 24.2H64.6V25.2H63.2H63.3Z" fill="black"/>
<path d="M69.2 25.2C68.2 25.2 67.5 24.9 67 24.4C66.5 23.9 66.2 23.2 66.2 22.2C66.2 21.2 66.4 20.5 66.9 20C67.4 19.5 68 19.2 68.8 19.2C69.6 19.2 70.2 19.4 70.6 19.9C71 20.4 71.2 21 71.2 21.9C71.2 22.8 71.2 22.4 71.2 22.6H67.2V21.7H70.2C70.2 21.2 70.2 20.8 69.8 20.5C69.6 20.2 69.2 20.1 68.8 20.1C68.4 20.1 67.9 20.3 67.7 20.6C67.4 20.9 67.3 21.4 67.3 22C67.3 22.6 67.5 23.2 67.9 23.5C68.3 23.8 68.8 24 69.5 24H70.2C70.4 24 70.7 24 70.9 23.9V24.9C70.7 24.9 70.4 25 70.1 25H69.4L69.2 25.2Z" fill="black"/>
<path d="M72.3 25.1V24.1H76.1V25.1H72.3ZM72.5 20.4V19.4H74.4V20.4H72.5ZM73.6 25.1V19.4H74.5L74.7 21V25.1H73.6ZM74.7 22.6L74.4 20.8H74.8C74.8 19.8 75.4 19.2 76.4 19.2C77.4 19.2 77.4 19.4 77.7 19.7C78 20 78.1 20.6 78.1 21.3H77C77 20.9 77 20.6 76.8 20.4C76.8 20.2 76.5 20.1 76.2 20.1C75.7 20.1 75.4 20.3 75.1 20.7C74.9 21.1 74.7 21.7 74.7 22.5V22.6Z" fill="black"/>
<path d="M85.6 25.1V17.5H86.7V25.1H85.6ZM85.6 18.5V17.5H90.6V18.5H85.6ZM85.6 21.8V20.8H89.7V21.8H85.6ZM85.6 25.1V24.1H90.6V25.1H85.6Z" fill="black"/>
<path d="M91.8 25.1V19.4H92.8V20.6V25.1H91.7H91.8ZM94 25.1V20.6C94 20.3 93.8 20.1 93.5 20.1C93.2 20.1 93 20.4 93 20.9L92.7 20.1H93.1C93.1 19.6 93.5 19.3 94.1 19.3C94.7 19.3 94.6 19.4 94.8 19.6C95 19.8 95.1 20.1 95.1 20.5V25.1H94ZM95.9 25.1V20.7C95.9 20.3 95.9 20.1 95.5 20.1C95.1 20.1 94.9 20.4 94.9 20.9L94.5 20.1H94.9C94.9 19.9 94.9 19.7 95.2 19.5C95.4 19.3 95.6 19.3 95.9 19.3C96.2 19.3 96.6 19.4 96.8 19.6C97 19.8 97.1 20.2 97.1 20.6V25.1H95.9Z" fill="black"/>
<path d="M101.4 25.2C100.4 25.2 99.7 24.9 99.2 24.4C98.7 23.9 98.4 23.2 98.4 22.2C98.4 21.2 98.6 20.5 99.1 20C99.6 19.5 100.2 19.2 101 19.2C101.8 19.2 102.4 19.4 102.8 19.9C103.2 20.4 103.4 21 103.4 21.9C103.4 22.8 103.4 22.4 103.4 22.6H99.4V21.7H102.4C102.4 21.2 102.4 20.8 102 20.5C101.8 20.2 101.4 20.1 101 20.1C100.6 20.1 100.1 20.3 99.9 20.6C99.6 20.9 99.5 21.4 99.5 22C99.5 22.6 99.7 23.2 100.1 23.5C100.5 23.8 101 24 101.7 24H102.4C102.6 24 102.9 24 103.1 23.9V24.9C102.9 24.9 102.6 25 102.3 25H101.6L101.4 25.2Z" fill="black"/>
<path d="M104.5 25.1V24.1H108.3V25.1H104.5ZM104.8 20.4V19.4H106.7V20.4H104.8ZM105.8 25.1V19.4H106.7L106.9 21V25.1H105.8ZM106.9 22.6L106.6 20.8H107C107 19.8 107.6 19.2 108.6 19.2C109.6 19.2 109.6 19.4 109.9 19.7C110.2 20 110.3 20.6 110.3 21.3H109.2C109.2 20.9 109.2 20.6 109 20.4C109 20.2 108.7 20.1 108.4 20.1C107.9 20.1 107.6 20.3 107.3 20.7C107.1 21.1 106.9 21.7 106.9 22.5V22.6Z" fill="black"/>
<path d="M113.3 25.2C112.6 25.2 112 25 111.6 24.5C111.2 24 111 23.3 111 22.3C111 21.3 111.2 20.6 111.6 20.1C112 19.6 112.6 19.3 113.3 19.3C114 19.3 114.1 19.4 114.4 19.6C114.7 19.8 114.8 20.1 114.9 20.4H115.3L114.9 22C114.9 21.4 114.9 21 114.6 20.7C114.4 20.4 114 20.2 113.6 20.2C113.2 20.2 112.8 20.4 112.6 20.7C112.4 21 112.2 21.6 112.2 22.2C112.2 22.8 112.2 23.3 112.6 23.6C113 23.9 113.2 24.1 113.6 24.1C114 24.1 114.4 23.9 114.6 23.6C114.8 23.3 114.9 22.8 114.9 22.3L115.3 23.9H114.8C114.8 24.3 114.6 24.5 114.3 24.7C114 24.9 113.7 25 113.2 25V25.2H113.3ZM111.5 27.7V26.7H113.3C113.9 26.7 114.3 26.5 114.6 26.2C114.9 25.9 115 25.5 115 24.9V19.5H116.1V24.7C116.1 25.7 115.9 26.5 115.4 26.9C114.9 27.3 114.2 27.6 113.2 27.7H111.5Z" fill="black"/>
<path d="M120.7 25.2C119.7 25.2 119 24.9 118.5 24.4C118 23.9 117.7 23.2 117.7 22.2C117.7 21.2 117.9 20.5 118.4 20C118.9 19.5 119.5 19.2 120.3 19.2C121.1 19.2 121.7 19.4 122.1 19.9C122.5 20.4 122.7 21 122.7 21.9C122.7 22.8 122.7 22.4 122.7 22.6H118.7V21.7H121.7C121.7 21.2 121.7 20.8 121.3 20.5C121.1 20.2 120.7 20.1 120.3 20.1C119.9 20.1 119.4 20.3 119.2 20.6C118.9 20.9 118.8 21.4 118.8 22C118.8 22.6 119 23.2 119.4 23.5C119.8 23.8 120.3 24 121 24H121.7C121.9 24 122.2 24 122.4 23.9V24.9C122.2 24.9 121.9 25 121.6 25H120.9L120.7 25.2Z" fill="black"/>
<path d="M124.4 25.1V19.4H125.4V20.6V25.1H124.3H124.4ZM127.9 25.1V21.4C127.9 21.1 127.9 20.8 127.6 20.6C127.3 20.4 127.2 20.3 126.8 20.3C125.9 20.3 125.5 20.8 125.5 21.9L125.2 20.4H125.6C125.6 20 125.8 19.7 126 19.5C126.2 19.3 126.6 19.2 127.1 19.2C127.6 19.2 128.2 19.4 128.5 19.7C128.8 20 129 20.6 129 21.2V24.9H127.9V25.1Z" fill="black"/>
<path d="M133.7 25.2C132.7 25.2 132 24.9 131.5 24.4C131 23.9 130.7 23.2 130.7 22.2C130.7 21.2 130.9 20.5 131.4 20C131.9 19.5 132.6 19.2 133.5 19.2C134.4 19.2 134.5 19.3 134.9 19.5C135.3 19.7 135.6 20 135.7 20.4L134.8 21.1C134.6 20.8 134.4 20.6 134.2 20.5C134 20.4 133.7 20.3 133.4 20.3C132.9 20.3 132.4 20.5 132.1 20.8C131.8 21.1 131.7 21.6 131.7 22.2C131.7 22.8 131.9 23.3 132.2 23.7C132.5 24 133 24.2 133.7 24.2H134.5C134.8 24.2 135 24.2 135.3 24.1V25.1C135.1 25.1 134.8 25.2 134.5 25.2H133.6H133.7Z" fill="black"/>
<path d="M138.9 25.1L136.6 19.4H137.8L139.7 24.2H139.9V25.1H138.9ZM136.7 27.7V26.7H137.5C137.9 26.6 138.2 26.5 138.5 26.3C138.8 26.1 139 25.9 139.2 25.6C139.4 25.3 139.6 24.9 139.7 24.4L141.1 19.5H142.3L140.7 24.7C140.5 25.4 140.2 25.9 140 26.3C139.7 26.7 139.4 27 139.1 27.2C138.7 27.4 138.3 27.5 137.8 27.6H136.7V27.7Z" fill="black"/>
<path d="M150 25.1V17.5H151.1V25.1H150ZM151 22.2V21.2H152.6C153 21.2 153.4 21.1 153.6 20.9C153.8 20.7 154 20.4 154 19.9C154 19.4 153.9 19.1 153.6 18.9C153.4 18.7 153 18.5 152.6 18.5H151V17.5C150.9 17.5 152.6 17.5 152.6 17.5C153.4 17.5 154 17.7 154.4 18.1C154.8 18.5 155 19.1 155 19.8C155 20.5 154.8 21.2 154.4 21.6C154 22 153.4 22.2 152.6 22.2H151ZM154.1 25.1L152.4 21.5H153.6L155.4 25.1H154.1Z" fill="black"/>
<path d="M159.4 25.2C158.4 25.2 157.7 24.9 157.2 24.4C156.7 23.9 156.4 23.2 156.4 22.2C156.4 21.2 156.6 20.5 157.1 20C157.6 19.5 158.2 19.2 159 19.2C159.8 19.2 160.4 19.4 160.8 19.9C161.2 20.4 161.4 21 161.4 21.9C161.4 22.8 161.4 22.4 161.4 22.6H157.4V21.7H160.4C160.4 21.2 160.3 20.8 160 20.5C159.8 20.2 159.4 20.1 159 20.1C158.6 20.1 158.1 20.3 157.9 20.6C157.6 20.9 157.5 21.4 157.5 22C157.5 22.6 157.7 23.2 158.1 23.5C158.5 23.8 159 24 159.7 24C160.4 24 160.2 24 160.4 24C160.6 24 160.9 24 161.1 23.9V24.9C160.9 24.9 160.6 25 160.3 25H159.6L159.4 25.2Z" fill="black"/>
<path d="M164.9 25.2H163.8C163.5 25.2 163.2 25.2 163 25.1V24.1C163.5 24.1 163.8 24.2 164.1 24.2H164.9C165.5 24.2 165.9 24.2 166.2 24C166.5 23.9 166.6 23.7 166.6 23.5C166.6 23.3 166.6 23.2 166.5 23.1L166.1 22.9L164.8 22.6C164.2 22.5 163.8 22.3 163.6 22.1C163.3 21.9 163.2 21.6 163.2 21.1C163.2 20.6 163.4 20 163.9 19.7C164.4 19.4 165.1 19.3 166.2 19.3C167.3 19.3 166.7 19.3 167 19.3H167.7V20.3H166.2C165.6 20.3 165.1 20.3 164.8 20.5C164.5 20.6 164.4 20.8 164.4 21C164.4 21.2 164.4 21.3 164.6 21.4C164.7 21.4 164.9 21.5 165.1 21.6L166.2 21.9C166.8 22 167.2 22.2 167.5 22.5C167.8 22.7 167.9 23.1 167.9 23.5C167.9 23.9 167.7 24.6 167.2 24.8C166.8 25.1 166 25.2 165 25.2H164.9Z" fill="black"/>
<path d="M169.5 27.6V19.4H170.5V20.6C170.6 20.6 170.6 27.6 170.6 27.6H169.5ZM172.2 25.2C171.8 25.2 171.4 25.1 171.1 24.9C170.8 24.7 170.7 24.4 170.6 24.1H170.1L170.5 22.5C170.5 23.1 170.6 23.5 170.8 23.8C171 24.1 171.4 24.3 171.8 24.3C172.2 24.3 172.6 24.1 172.8 23.8C173 23.5 173.2 23 173.2 22.4C173.2 21.8 173.1 21.2 172.8 20.9C172.5 20.6 172.2 20.4 171.8 20.4C171.4 20.4 171 20.6 170.8 20.9C170.6 21.2 170.5 21.7 170.5 22.2L170.1 20.6H170.5C170.5 20.2 170.7 20 171 19.8C171.3 19.6 171.6 19.5 172.1 19.5C172.6 19.5 173.4 19.8 173.8 20.3C174.2 20.8 174.4 21.6 174.4 22.5C174.4 23.4 174.2 24.2 173.8 24.7C173.4 25.2 172.9 25.4 172.1 25.4V25.2H172.2Z" fill="black"/>
<path d="M178.2 25.2C177.4 25.2 176.8 24.9 176.4 24.4C176 23.9 175.7 23.2 175.7 22.2C175.7 21.2 175.9 20.5 176.4 20C176.8 19.5 177.4 19.2 178.2 19.2C179 19.2 179.6 19.5 180 20C180.4 20.5 180.7 21.2 180.7 22.2C180.7 23.2 180.5 23.9 180 24.4C179.6 24.9 179 25.2 178.2 25.2ZM178.2 24.2C178.6 24.2 178.9 24 179.2 23.7C179.4 23.4 179.5 22.9 179.5 22.3C179.5 21.7 179.4 21.2 179.2 20.9C179 20.6 178.6 20.4 178.2 20.4C177.8 20.4 177.5 20.6 177.2 20.9C177 21.2 176.9 21.7 176.9 22.3C176.9 22.9 177 23.4 177.2 23.7C177.4 24 177.8 24.2 178.2 24.2Z" fill="black"/>
<path d="M182.4 25.1V19.4H183.4V20.6C183.5 20.6 183.5 25.1 183.5 25.1H182.4ZM185.9 25.1V21.4C185.9 21.1 185.9 20.8 185.6 20.6C185.3 20.4 185.2 20.3 184.8 20.3C183.9 20.3 183.5 20.8 183.5 21.9L183.2 20.4H183.6C183.6 20 183.8 19.7 184 19.5C184.2 19.3 184.6 19.2 185.1 19.2C185.6 19.2 186.2 19.4 186.5 19.7C186.8 20 187 20.6 187 21.2V24.9H185.9V25.1Z" fill="black"/>
<path d="M190.7 25.2H189.6C189.3 25.2 189 25.2 188.8 25.1V24.1C189.3 24.1 189.6 24.2 189.9 24.2H190.7C191.3 24.2 191.7 24.2 192 24C192.3 23.9 192.4 23.7 192.4 23.5C192.4 23.3 192.4 23.2 192.3 23.1L191.9 22.9L190.6 22.6C190 22.5 189.6 22.3 189.4 22.1C189.1 21.9 189 21.6 189 21.1C189 20.6 189.2 20 189.7 19.7C190.2 19.4 190.9 19.3 192 19.3C193.1 19.3 192.5 19.3 192.8 19.3H193.5V20.3H192C191.4 20.3 190.9 20.3 190.6 20.5C190.3 20.6 190.2 20.8 190.2 21C190.2 21.2 190.2 21.3 190.4 21.4C190.5 21.4 190.7 21.5 190.9 21.6L192 21.9C192.6 22 193 22.2 193.3 22.5C193.6 22.7 193.7 23.1 193.7 23.5C193.7 23.9 193.5 24.6 193 24.8C192.6 25.1 191.8 25.2 190.8 25.2H190.7Z" fill="black"/>
<path d="M198.1 25.2C197.1 25.2 196.4 24.9 195.9 24.4C195.4 23.9 195.1 23.2 195.1 22.2C195.1 21.2 195.3 20.5 195.8 20C196.3 19.5 196.9 19.2 197.7 19.2C198.5 19.2 199.1 19.4 199.5 19.9C199.9 20.4 200.1 21 200.1 21.9C200.1 22.8 200.1 22.4 200.1 22.6H196.1V21.7H199.1C199.1 21.2 199 20.8 198.7 20.5C198.5 20.2 198.1 20.1 197.7 20.1C197.3 20.1 196.8 20.3 196.6 20.6C196.3 20.9 196.2 21.4 196.2 22C196.2 22.6 196.4 23.2 196.8 23.5C197.2 23.8 197.7 24 198.4 24C199.1 24 198.9 24 199.1 24C199.3 24 199.6 24 199.8 23.9V24.9C199.6 24.9 199.3 25 199 25H198.3L198.1 25.2Z" fill="black"/>
<path d="M207.7 18.5V17.5H213.3V18.5H207.7ZM209.9 25.1V17.5H211V25.1H209.9Z" fill="black"/>
<path d="M216.9 25.2C216.1 25.2 215.5 24.9 215.1 24.4C214.7 23.9 214.4 23.2 214.4 22.2C214.4 21.2 214.6 20.5 215.1 20C215.5 19.5 216.1 19.2 216.9 19.2C217.7 19.2 218.3 19.5 218.7 20C219.1 20.5 219.4 21.2 219.4 22.2C219.4 23.2 219.2 23.9 218.7 24.4C218.3 24.9 217.7 25.2 216.9 25.2ZM216.9 24.2C217.3 24.2 217.6 24 217.9 23.7C218.1 23.4 218.2 22.9 218.2 22.3C218.2 21.7 218.1 21.2 217.9 20.9C217.7 20.6 217.3 20.4 216.9 20.4C216.5 20.4 216.2 20.6 215.9 20.9C215.7 21.2 215.6 21.7 215.6 22.3C215.6 22.9 215.7 23.4 215.9 23.7C216.1 24 216.5 24.2 216.9 24.2Z" fill="black"/>
<path d="M223.4 25.2C222.6 25.2 222 24.9 221.6 24.4C221.2 23.9 220.9 23.2 220.9 22.2C220.9 21.2 221.1 20.5 221.6 20C222 19.5 222.6 19.2 223.4 19.2C224.2 19.2 224.8 19.5 225.2 20C225.6 20.5 225.9 21.2 225.9 22.2C225.9 23.2 225.7 23.9 225.2 24.4C224.7 24.9 224.2 25.2 223.4 25.2ZM223.4 24.2C223.8 24.2 224.1 24 224.4 23.7C224.6 23.4 224.7 22.9 224.7 22.3C224.7 21.7 224.6 21.2 224.4 20.9C224.2 20.6 223.8 20.4 223.4 20.4C223 20.4 222.7 20.6 222.4 20.9C222.2 21.2 222.1 21.7 222.1 22.3C222.1 22.9 222.2 23.4 222.4 23.7C222.6 24 223 24.2 223.4 24.2Z" fill="black"/>
<path d="M227.1 18V17H228.9V18H227.1ZM230.6 25.2C229.9 25.2 229.5 25 229.2 24.7C228.9 24.4 228.8 23.8 228.8 23V17.1H229.9V23.7C229.9 23.9 230.1 24 230.2 24.1C230.4 24.1 230.6 24.2 230.9 24.2C231.2 24.2 231.6 24.2 232 24V25C231.8 25 231.6 25.1 231.3 25.2C231 25.3 230.7 25.2 230.4 25.2H230.6Z" fill="black"/>
<path d="M241.9 25.2C241.2 25.2 240.7 25 240.3 24.7C239.9 24.3 239.7 23.9 239.7 23.3C239.7 22.7 239.9 22.3 240.2 21.9C240.5 21.5 241.1 21.3 241.7 21.2L242.3 21.9C241.8 21.9 241.4 22.2 241.2 22.4C240.9 22.6 240.8 22.9 240.8 23.3C240.8 23.7 240.9 23.9 241.1 24C241.3 24.2 241.6 24.3 242 24.3C242.7 24.3 243.3 24 243.6 23.5C243.9 23 244.2 22.1 244.2 21.1H245.2C245.2 22.4 244.9 23.5 244.3 24.2C243.7 24.9 242.9 25.3 241.8 25.3L241.9 25.2ZM244.6 25.1L241.8 22.1C241.3 21.6 241 21.1 240.8 20.7C240.6 20.3 240.5 19.9 240.5 19.5C240.5 18.8 240.7 18.3 241.1 17.9C241.5 17.5 242 17.3 242.7 17.3V18.3C242.4 18.3 242.1 18.4 242 18.6C241.9 18.8 241.7 19.1 241.7 19.5C241.7 19.9 241.7 20 241.9 20.3C242.1 20.6 242.2 20.8 242.5 21.1L246 25.1H244.6ZM243.6 19.1C243.6 18.9 243.6 18.7 243.4 18.6C243.2 18.5 243 18.4 242.8 18.4V17.4C243.4 17.4 243.9 17.5 244.3 17.8C244.7 18.1 244.8 18.5 244.8 19.1H243.6Z" fill="black"/>
<path d="M255.6 25.2C253.7 25.2 252.8 23.9 252.8 21.3C252.8 18.7 253.7 17.3 255.6 17.3C257.5 17.3 258.4 18.6 258.4 21.3C258.4 24 257.5 25.2 255.6 25.2ZM255.6 24.2C256.7 24.2 257.3 23.2 257.3 21.3C257.3 19.4 256.7 18.3 255.6 18.3C254.5 18.3 253.9 19.3 253.9 21.3C253.9 23.3 254.5 24.2 255.6 24.2Z" fill="black"/>
<path d="M259.7 27.6V19.4H260.7V20.6C260.8 20.6 260.8 27.6 260.8 27.6H259.7ZM262.5 25.2C262.1 25.2 261.7 25.1 261.4 24.9C261.1 24.7 261 24.4 260.9 24.1H260.4L260.8 22.5C260.8 23.1 260.9 23.5 261.1 23.8C261.3 24.1 261.7 24.3 262.1 24.3C262.5 24.3 262.9 24.1 263.1 23.8C263.3 23.5 263.5 23 263.5 22.4C263.5 21.8 263.4 21.2 263.1 20.9C262.8 20.6 262.5 20.4 262.1 20.4C261.7 20.4 261.3 20.6 261.1 20.9C260.9 21.2 260.8 21.7 260.8 22.2L260.4 20.6H260.8C260.8 20.2 261 20 261.3 19.8C261.6 19.6 261.9 19.5 262.4 19.5C262.9 19.5 263.7 19.8 264.1 20.3C264.5 20.8 264.7 21.6 264.7 22.5C264.7 23.4 264.5 24.2 264.1 24.7C263.7 25.2 263.2 25.4 262.4 25.4V25.2H262.5Z" fill="black"/>
<path d="M265.6 20.4V19.4H270.8V20.4H265.6ZM267.1 22.4V17.7H268.2V22.4H267.1ZM269.5 25.2C268.6 25.2 268 25 267.6 24.7C267.2 24.4 267 23.8 267 23V22H268.1V22.9C268.1 23.4 268.2 23.7 268.4 23.9C268.6 24.1 269 24.2 269.5 24.2H270.8V25.2H269.4H269.5Z" fill="black"/>
<path d="M272.6 25.1V24.1H274.9V25.1H272.6ZM272.9 20.4V19.4H275.9V20.4H272.9ZM275.3 18.5C275.1 18.5 274.9 18.5 274.7 18.3C274.5 18.1 274.5 18 274.5 17.7C274.5 17.4 274.5 17.3 274.7 17.1C274.9 16.9 275 16.9 275.3 16.9C275.6 16.9 275.7 16.9 275.9 17.1C276.1 17.3 276.1 17.4 276.1 17.7C276.1 18 276.1 18.1 275.9 18.3C275.7 18.5 275.6 18.5 275.3 18.5ZM274.7 25.1V19.7H275.8V25.1H274.7ZM275.8 25.1V24.1H277.7V25.1H275.8Z" fill="black"/>
<path d="M278.7 25.1V19.4H279.7V20.6C279.8 20.6 279.8 25.1 279.8 25.1H278.7ZM280.9 25.1V20.6C280.9 20.3 280.7 20.1 280.4 20.1C280.1 20.1 279.9 20.4 279.9 20.9L279.6 20.1H280C280 19.6 280.4 19.3 281 19.3C281.6 19.3 281.5 19.4 281.7 19.6C281.9 19.8 282 20.1 282 20.5V25.1H280.9ZM282.8 25.1V20.7C282.8 20.3 282.7 20.1 282.4 20.1C282.1 20.1 281.8 20.4 281.8 20.9L281.4 20.1H281.8C281.8 19.9 281.9 19.7 282.1 19.5C282.3 19.3 282.5 19.3 282.8 19.3C283.1 19.3 283.5 19.4 283.7 19.6C283.9 19.8 284 20.2 284 20.6V25.1H282.8Z" fill="black"/>
<path d="M285.4 25.1V24.1H287.7V25.1H285.4ZM285.8 20.4V19.4H288.8V20.4H285.8ZM288.1 18.5C287.9 18.5 287.7 18.5 287.5 18.3C287.3 18.1 287.3 18 287.3 17.7C287.3 17.4 287.3 17.3 287.5 17.1C287.7 16.9 287.8 16.9 288.1 16.9C288.4 16.9 288.5 16.9 288.7 17.1C288.9 17.3 288.9 17.4 288.9 17.7C288.9 18 288.9 18.1 288.7 18.3C288.5 18.5 288.4 18.5 288.1 18.5ZM287.6 25.1V19.7H288.7V25.1H287.6ZM288.6 25.1V24.1H290.5V25.1H288.6Z" fill="black"/>
<path d="M291.9 20.4V19.4H296.5V20.4H291.9ZM292.7 24.7L291.9 24L295.7 19.7L296.5 20.3L292.7 24.6V24.7ZM291.9 25.1V24.1H296.6V25.1H291.9Z" fill="black"/>
<path d="M301.2 25.2C300.2 25.2 299.5 24.9 299 24.4C298.5 23.9 298.2 23.2 298.2 22.2C298.2 21.2 298.4 20.5 298.9 20C299.3 19.5 300 19.2 300.8 19.2C301.6 19.2 302.2 19.4 302.6 19.9C303 20.4 303.2 21 303.2 21.9C303.2 22.8 303.2 22.4 303.2 22.6H299.2V21.7H302.2C302.2 21.2 302.1 20.8 301.8 20.5C301.6 20.2 301.2 20.1 300.8 20.1C300.4 20.1 299.9 20.3 299.7 20.6C299.5 20.9 299.3 21.4 299.3 22C299.3 22.6 299.5 23.2 299.9 23.5C300.3 23.8 300.8 24 301.5 24H302.2C302.4 24 302.7 24 302.9 23.9V24.9C302.7 24.9 302.4 25 302.1 25H301.4L301.2 25.2Z" fill="black"/>
<path d="M304.3 25.1V24.1H308.1V25.1H304.3ZM304.6 20.4V19.4H306.5V20.4C306.6 20.4 304.6 20.4 304.6 20.4ZM305.6 25.1V19.4H306.5L306.7 21V25.1H305.6ZM306.8 22.6L306.5 20.8H306.9C306.9 19.8 307.5 19.2 308.5 19.2C309.5 19.2 309.5 19.4 309.8 19.7C310.1 20 310.2 20.6 310.2 21.3H309.1C309.1 20.9 309.1 20.6 308.9 20.4C308.8 20.2 308.6 20.1 308.3 20.1C307.8 20.1 307.5 20.3 307.2 20.7C307 21.1 306.8 21.7 306.8 22.5V22.6Z" fill="black"/>
<path d="M35.8 109.3C31.7 109.3 27.8 109 24.2 108.3C20.6 107.6 17.3 106.6 14.2 105.3L15.5 94.9C19.3 96.5 22.9 97.7 26.4 98.6C29.9 99.4 33.3 99.9 36.6 99.9C41.4 99.9 44.9 99.1 47.3 97.4C49.6 95.7 50.8 93.2 50.8 89.8C50.8 86.4 48.6 82.3 44.1 80.3L31.5 74.6C26.5 72.3 22.7 69.6 20.1 66.4C17.5 63.2 16.1 59.3 16.1 54.6C16.1 49.9 18 43.3 21.8 39.8C25.6 36.3 31 34.6 38.1 34.6C45.2 34.6 47.3 35.3 51.1 36.8C54.9 38.2 58.5 40.6 62 43.8L54.8 51.1C51.8 48.6 49 46.9 46.4 45.7C43.8 44.6 41.1 44 38.2 44C35.3 44 32 44.8 30 46.5C28.1 48.2 27.1 50.7 27.1 54C27.1 57.3 27.7 58.3 29 59.8C30.3 61.3 32.1 62.6 34.6 63.8L45.3 68.8C50.7 71.3 54.8 74.2 57.6 77.4C60.4 80.6 61.8 84.7 61.8 89.7C61.8 94.7 59.7 101.2 55.4 104.5C51.1 107.8 44.6 109.4 35.9 109.4L35.8 109.3Z" fill="#9D00DF"/>
<path d="M77.3 108.3V35.5H88V108.3H77.3ZM77.3 45.2V35.5H125.5V45.2H77.3ZM77.3 76.7V67H116.3V76.7H77.3ZM77.3 108.3V98.6H125.5V108.3H77.3Z" fill="#9D00DF"/>
<path d="M137.8 108.3V35.5H148.5V108.3H137.8ZM147.8 80.6V70.9H162.9C167 70.9 170.1 69.8 172.4 67.7C174.7 65.5 175.8 62.5 175.8 58.6C175.8 54.7 174.7 51 172.4 48.7C170.1 46.4 167 45.2 162.9 45.2H148L146.8 35.5H162.9C170.5 35.5 176.3 37.4 180.4 41.2C184.5 45 186.6 50.5 186.6 57.5C186.6 64.5 184.5 70.5 180.4 74.5C176.3 78.5 170.4 80.5 162.9 80.5H147.8V80.6ZM176.9 108.3L160.6 74.1H171.9L189.2 108.3H176.9Z" fill="#9D00DF"/>
<path d="M196.3 45.2V35.5H249.6V45.2H196.3ZM217.6 108.3V35.5H228.3V108.3H217.6Z" fill="#9D00DF"/>
<path d="M284.5 109.3C266.6 109.3 257.6 97 257.6 72.4C257.6 47.8 266.6 34.5 284.5 34.5C302.4 34.5 311.4 47.1 311.4 72.4C311.4 97.7 302.4 109.3 284.5 109.3ZM284.5 99.9C295.1 99.9 300.4 90.7 300.4 72.4C300.4 54.1 295.1 43.9 284.5 43.9C273.9 43.9 268.6 53.4 268.6 72.4C268.6 91.4 273.9 99.9 284.5 99.9Z" fill="#9D00DF"/>
</g>
<defs>
<filter id="filter0_d_26_2" x="49.4218" y="88" width="209.156" height="48" filterUnits="userSpaceOnUse" color-interpolation-filters="sRGB">
<feFlood flood-opacity="0" result="BackgroundImageFix"/>
<feColorMatrix in="SourceAlpha" type="matrix" values="0 0 0 0 0 0 0 0 0 0 0 0 0 0 0 0 0 0 127 0" result="hardAlpha"/>
<feOffset dy="4"/>
<feGaussianBlur stdDeviation="2"/>
<feComposite in2="hardAlpha" operator="out"/>
<feColorMatrix type="matrix" values="0 0 0 0 0 0 0 0 0 0 0 0 0 0 0 0 0 0 0.25 0"/>
<feBlend mode="normal" in2="BackgroundImageFix" result="effect1_dropShadow_26_2"/>
<feBlend mode="normal" in="SourceGraphic" in2="effect1_dropShadow_26_2" result="shape"/>
</filter>
<clipPath id="clip0_26_2">
<rect width="323.1" height="145.3" fill="white"/>
</clipPath>
</defs>
</svg>
