<svg width="324" height="146" viewBox="0 0 324 146" fill="none" xmlns="http://www.w3.org/2000/svg">
<path d="M129.7 56.7C129.3 57.8 128.6 58.8 127.7 59.2M127.7 61.7C125.4 61.7 123.7 59.6 123.7 56.9C123.7 54.2 127.7 48.2 127.7 48.2C127.7 48.2 131.7 53.3 131.7 56.9C131.7 60.5 129.8 61.7 127.7 61.7Z" stroke="#1600C9" stroke-width="1.5" stroke-linecap="round" stroke-linejoin="round"/>
<path d="M112.9 55.9C112.5 57.1 111.7 58.2 110.7 58.6M110.6 61.2C108.1 61.2 106.2 58.9 106.2 56.1C106.2 53.3 110.6 46.9 110.6 46.9C110.6 46.9 115 52.2 115 56.1C115 60 112.9 61.2 110.6 61.2Z" stroke="#55DFFF" stroke-width="1.5" stroke-linecap="round" stroke-linejoin="round"/>
<path d="M129.9 79.9C129.5 81.1 128.7 82.2 127.7 82.6M127.6 85.2C125.1 85.2 123.2 82.9 123.2 80.1C123.2 77.3 127.6 70.9 127.6 70.9C127.6 70.9 132 76.2 132 80.1C132 84 129.9 85.2 127.6 85.2Z" stroke="#55DFFF" stroke-width="1.5" stroke-linecap="round" stroke-linejoin="round"/>
<path d="M162.9 97.9C162.5 99.1 161.7 100.2 160.7 100.6M160.6 103.2C158.1 103.2 156.2 100.9 156.2 98.1C156.2 95.3 160.6 88.9 160.6 88.9C160.6 88.9 165 94.2 165 98.1C165 102 162.9 103.2 160.6 103.2Z" stroke="#55DFFF" stroke-width="1.5" stroke-linecap="round" stroke-linejoin="round"/>
<path d="M202.9 102.9C202.5 104.1 201.7 105.2 200.7 105.6M200.6 108.2C198.1 108.2 196.2 105.9 196.2 103.1C196.2 100.3 200.6 93.9 200.6 93.9C200.6 93.9 205 99.2 205 103.1C205 107 202.9 108.2 200.6 108.2Z" stroke="#55DFFF" stroke-width="1.5" stroke-linecap="round" stroke-linejoin="round"/>
<path d="M242.9 104.9C242.5 106.1 241.7 107.2 240.7 107.6M240.6 110.2C238.1 110.2 236.2 107.9 236.2 105.1C236.2 102.3 240.6 95.9 240.6 95.9C240.6 95.9 245 101.2 245 105.1C245 109 242.9 110.2 240.6 110.2Z" stroke="#55DFFF" stroke-width="1.5" stroke-linecap="round" stroke-linejoin="round"/>
<path d="M162.6 61.8C162.2 62.9 161.5 63.9 160.6 64.3M160.6 66.9C158.3 66.9 156.6 64.8 156.6 62.1C156.6 59.4 160.6 53.4 160.6 53.4C160.6 53.4 164.6 58.5 164.6 62.1C164.6 65.7 162.7 66.9 160.6 66.9Z" stroke="#1600C9" stroke-width="1.5" stroke-linecap="round" stroke-linejoin="round"/>
<path d="M200.6 59.8C200.2 60.9 199.5 61.9 198.6 62.3M198.6 64.9C196.3 64.9 194.6 62.8 194.6 60.1C194.6 57.4 198.6 51.4 198.6 51.4C198.6 51.4 202.6 56.5 202.6 60.1C202.6 63.7 200.7 64.9 198.6 64.9Z" stroke="#1600C9" stroke-width="1.5" stroke-linecap="round" stroke-linejoin="round"/>
<path d="M208.6 77.8C208.2 78.9 207.5 79.9 206.6 80.3M206.6 82.9C204.3 82.9 202.6 80.8 202.6 78.1C202.6 75.4 206.6 69.4 206.6 69.4C206.6 69.4 210.6 74.5 210.6 78.1C210.6 81.7 208.7 82.9 206.6 82.9Z" stroke="#1600C9" stroke-width="1.5" stroke-linecap="round" stroke-linejoin="round"/>
<path d="M237.6 75.8C237.2 76.9 236.5 77.9 235.6 78.3M235.6 80.9C233.3 80.9 231.6 78.8 231.6 76.1C231.6 73.4 235.6 67.4 235.6 67.4C235.6 67.4 239.6 72.5 239.6 76.1C239.6 79.7 237.7 80.9 235.6 80.9Z" stroke="#1600C9" stroke-width="1.5" stroke-linecap="round" stroke-linejoin="round"/>
<path d="M246.6 60.8C246.2 61.9 245.5 62.9 244.6 63.3M244.6 65.9C242.3 65.9 240.6 63.8 240.6 61.1C240.6 58.4 244.6 52.4 244.6 52.4C244.6 52.4 248.6 57.5 248.6 61.1C248.6 64.7 246.7 65.9 244.6 65.9Z" stroke="#1600C9" stroke-width="1.5" stroke-linecap="round" stroke-linejoin="round"/>
<path d="M250.6 86.8C250.2 87.9 249.5 88.9 248.6 89.3M248.6 91.9C246.3 91.9 244.6 89.8 244.6 87.1C244.6 84.4 248.6 78.4 248.6 78.4C248.6 78.4 252.6 83.5 252.6 87.1C252.6 90.7 250.7 91.9 248.6 91.9Z" stroke="#1600C9" stroke-width="1.5" stroke-linecap="round" stroke-linejoin="round"/>
<path d="M191.6 80.8C191.2 81.9 190.5 82.9 189.6 83.3M189.6 85.9C187.3 85.9 185.6 83.8 185.6 81.1C185.6 78.4 189.6 72.4 189.6 72.4C189.6 72.4 193.6 77.5 193.6 81.1C193.6 84.7 191.7 85.9 189.6 85.9Z" stroke="#1600C9" stroke-width="1.5" stroke-linecap="round" stroke-linejoin="round"/>
<path d="M35.8 109.3C31.7 109.3 27.8 109 24.2 108.3C20.6 107.6 17.3 106.6 14.2 105.3L15.5 94.9C19.3 96.5 22.9 97.7 26.4 98.6C29.9 99.4 33.3 99.9 36.6 99.9C41.4 99.9 44.9 99.1 47.3 97.4C49.6 95.7 50.8 93.2 50.8 89.8C50.8 86.4 48.6 82.3 44.1 80.3L31.5 74.6C26.5 72.3 22.7 69.6 20.1 66.4C17.5 63.2 16.1 59.3 16.1 54.6C16.1 49.9 18 43.3 21.8 39.8C25.6 36.3 31 34.6 38.1 34.6C45.2 34.6 47.3 35.3 51.1 36.8C54.9 38.2 58.5 40.6 62 43.8L54.8 51.1C51.8 48.6 49 46.9 46.4 45.7C43.8 44.6 41.1 44 38.2 44C35.3 44 32 44.8 30 46.5C28.1 48.2 27.1 50.7 27.1 54C27.1 57.3 27.7 58.3 29 59.8C30.3 61.3 32.1 62.6 34.6 63.8L45.3 68.8C50.7 71.3 54.8 74.2 57.6 77.4C60.4 80.6 61.8 84.7 61.8 89.7C61.8 94.7 59.7 101.2 55.4 104.5C51.1 107.8 44.6 109.4 35.9 109.4L35.8 109.3Z" fill="#9D00DF"/>
<path d="M77.3 108.3V35.5H88V108.3H77.3ZM77.3 45.2V35.5H125.5V45.2H77.3ZM77.3 76.7V67H116.3V76.7H77.3ZM77.3 108.3V98.6H125.5V108.3H77.3Z" fill="#9D00DF"/>
<path d="M137.8 108.3V35.5H148.5V108.3H137.8ZM147.8 80.6V70.9H162.9C167 70.9 170.1 69.8 172.4 67.7C174.7 65.5 175.8 62.5 175.8 58.6C175.8 54.7 174.7 51 172.4 48.7C170.1 46.4 167 45.2 162.9 45.2H148L146.8 35.5H162.9C170.5 35.5 176.3 37.4 180.4 41.2C184.5 45 186.6 50.5 186.6 57.5C186.6 64.5 184.5 70.5 180.4 74.5C176.3 78.5 170.4 80.5 162.9 80.5H147.8V80.6ZM176.9 108.3L160.6 74.1H171.9L189.2 108.3H176.9Z" fill="#9D00DF"/>
<path d="M196.3 45.2V35.5H249.6V45.2H196.3ZM217.6 108.3V35.5H228.3V108.3H217.6Z" fill="#9D00DF"/>
<path d="M284.5 109.3C266.6 109.3 257.6 97 257.6 72.4C257.6 47.8 266.6 34.5 284.5 34.5C302.4 34.5 311.4 47.1 311.4 72.4C311.4 97.7 302.4 109.3 284.5 109.3ZM284.5 99.9C295.1 99.9 300.4 90.7 300.4 72.4C300.4 54.1 295.1 43.9 284.5 43.9C273.9 43.9 268.6 53.4 268.6 72.4C268.6 91.4 273.9 99.9 284.5 99.9Z" fill="#9D00DF"/>
<path d="M19.3295 15.3545C19.2784 14.9227 19.071 14.5875 18.7074 14.3489C18.3438 14.1102 17.8977 13.9909 17.3693 13.9909C16.983 13.9909 16.6449 14.0534 16.3551 14.1784C16.0682 14.3034 15.8438 14.4753 15.6818 14.694C15.5227 14.9128 15.4432 15.1614 15.4432 15.4398C15.4432 15.6727 15.4986 15.873 15.6094 16.0406C15.723 16.2054 15.8679 16.3432 16.044 16.454C16.2202 16.5619 16.4048 16.6514 16.598 16.7224C16.7912 16.7906 16.9688 16.846 17.1307 16.8886L18.017 17.1273C18.2443 17.1869 18.4972 17.2693 18.7756 17.3744C19.0568 17.4795 19.3253 17.623 19.581 17.8048C19.8395 17.9838 20.0526 18.2139 20.2202 18.4952C20.3878 18.7764 20.4716 19.1216 20.4716 19.5307C20.4716 20.0023 20.348 20.4284 20.1009 20.8091C19.8565 21.1898 19.4986 21.4923 19.027 21.7168C18.5582 21.9412 17.9886 22.0534 17.3182 22.0534C16.6932 22.0534 16.152 21.9526 15.6946 21.7509C15.2401 21.5491 14.8821 21.2679 14.6207 20.9071C14.3622 20.5463 14.2159 20.1273 14.1818 19.65H15.2727C15.3011 19.9795 15.4119 20.2523 15.6051 20.4682C15.8011 20.6812 16.0483 20.8403 16.3466 20.9455C16.6477 21.0477 16.9716 21.0989 17.3182 21.0989C17.7216 21.0989 18.0838 21.0335 18.4048 20.9028C18.7259 20.7693 18.9801 20.5847 19.1676 20.3489C19.3551 20.1102 19.4489 19.8318 19.4489 19.5136C19.4489 19.2239 19.3679 18.9881 19.206 18.8062C19.044 18.6244 18.831 18.4767 18.5668 18.3631C18.3026 18.2494 18.017 18.15 17.7102 18.0648L16.6364 17.758C15.9545 17.5619 15.4148 17.2821 15.017 16.9185C14.6193 16.5548 14.4205 16.079 14.4205 15.4909C14.4205 15.0023 14.5526 14.5761 14.8168 14.2125C15.0838 13.846 15.4418 13.5619 15.8906 13.3602C16.3423 13.1557 16.8466 13.0534 17.4034 13.0534C17.9659 13.0534 18.4659 13.1543 18.9034 13.356C19.3409 13.5548 19.6875 13.8276 19.9432 14.1741C20.2017 14.5207 20.3381 14.9142 20.3523 15.3545H19.3295ZM24.9194 15.3545V16.2068H21.5273V15.3545H24.9194ZM22.516 13.7864H23.5217V20.025C23.5217 20.3091 23.5629 20.5222 23.6452 20.6642C23.7305 20.8034 23.8384 20.8972 23.9691 20.9455C24.1026 20.9909 24.2433 21.0136 24.391 21.0136C24.5018 21.0136 24.5927 21.008 24.6637 20.9966C24.7347 20.9824 24.7915 20.971 24.8342 20.9625L25.0387 21.8659C24.9705 21.8915 24.8754 21.917 24.7532 21.9426C24.631 21.971 24.4762 21.9852 24.2887 21.9852C24.0046 21.9852 23.7262 21.9241 23.4535 21.802C23.1836 21.6798 22.9592 21.4937 22.7802 21.2437C22.604 20.9937 22.516 20.6784 22.516 20.2977V13.7864ZM29.021 22.0364C28.43 22.0364 27.9116 21.8957 27.4656 21.6145C27.0224 21.3332 26.6758 20.9398 26.4258 20.4341C26.1786 19.9284 26.055 19.3375 26.055 18.6614C26.055 17.9795 26.1786 17.3844 26.4258 16.8759C26.6758 16.3673 27.0224 15.9724 27.4656 15.6912C27.9116 15.4099 28.43 15.2693 29.021 15.2693C29.6119 15.2693 30.1289 15.4099 30.5721 15.6912C31.0181 15.9724 31.3647 16.3673 31.6119 16.8759C31.8619 17.3844 31.9869 17.9795 31.9869 18.6614C31.9869 19.3375 31.8619 19.9284 31.6119 20.4341C31.3647 20.9398 31.0181 21.3332 30.5721 21.6145C30.1289 21.8957 29.6119 22.0364 29.021 22.0364ZM29.021 21.133C29.4698 21.133 29.8391 21.0179 30.1289 20.7878C30.4187 20.5577 30.6332 20.2551 30.7724 19.8801C30.9116 19.5051 30.9812 19.0989 30.9812 18.6614C30.9812 18.2239 30.9116 17.8162 30.7724 17.4384C30.6332 17.0605 30.4187 16.7551 30.1289 16.5222C29.8391 16.2892 29.4698 16.1727 29.021 16.1727C28.5721 16.1727 28.2028 16.2892 27.913 16.5222C27.6232 16.7551 27.4087 17.0605 27.2695 17.4384C27.1303 17.8162 27.0607 18.2239 27.0607 18.6614C27.0607 19.0989 27.1303 19.5051 27.2695 19.8801C27.4087 20.2551 27.6232 20.5577 27.913 20.7878C28.2028 21.0179 28.5721 21.133 29.021 21.133ZM33.522 21.9V15.3545H34.4936V16.3432H34.5618C34.6811 16.0193 34.897 15.7565 35.2095 15.5548C35.522 15.3531 35.8743 15.2523 36.2663 15.2523C36.3402 15.2523 36.4325 15.2537 36.5433 15.2565C36.6541 15.2594 36.7379 15.2636 36.7947 15.2693V16.292C36.7607 16.2835 36.6825 16.2707 36.5604 16.2537C36.4411 16.2338 36.3146 16.2239 36.1811 16.2239C35.8629 16.2239 35.5788 16.2906 35.3288 16.4241C35.0817 16.5548 34.8857 16.7366 34.7408 16.9696C34.5987 17.1997 34.5277 17.4625 34.5277 17.758V21.9H33.522ZM37.9869 21.9V15.3545H38.9585V16.3773H39.0437C39.18 16.0278 39.4002 15.7565 39.7042 15.5634C40.0082 15.3673 40.3732 15.2693 40.7994 15.2693C41.2312 15.2693 41.5906 15.3673 41.8775 15.5634C42.1673 15.7565 42.3931 16.0278 42.555 16.3773H42.6232C42.7908 16.0392 43.0423 15.7707 43.3775 15.5719C43.7127 15.3702 44.1147 15.2693 44.5835 15.2693C45.1687 15.2693 45.6474 15.4526 46.0195 15.819C46.3917 16.1827 46.5778 16.7494 46.5778 17.5193V21.9H45.5721V17.5193C45.5721 17.0364 45.44 16.6912 45.1758 16.4838C44.9116 16.2764 44.6005 16.1727 44.2425 16.1727C43.7823 16.1727 43.4258 16.3119 43.1729 16.5903C42.9201 16.8659 42.7937 17.2153 42.7937 17.6386V21.9H41.771V17.417C41.771 17.0449 41.6502 16.7452 41.4087 16.5179C41.1673 16.2878 40.8562 16.1727 40.4755 16.1727C40.2141 16.1727 39.9698 16.2423 39.7425 16.3815C39.5181 16.5207 39.3363 16.7139 39.1971 16.9611C39.0607 17.2054 38.9925 17.4881 38.9925 17.8091V21.9H37.9869ZM49.8995 21.9L47.9052 15.3545H48.962L50.3768 20.3659H50.445L51.8427 15.3545H52.9165L54.2972 20.3489H54.3654L55.7802 15.3545H56.837L54.8427 21.9H53.854L52.4222 16.8716H52.32L50.8881 21.9H49.8995ZM60.0927 22.0534C59.6779 22.0534 59.3015 21.9753 58.9634 21.819C58.6254 21.6599 58.3569 21.4312 58.158 21.133C57.9592 20.8318 57.8597 20.4682 57.8597 20.042C57.8597 19.667 57.9336 19.3631 58.0813 19.1301C58.229 18.8943 58.4265 18.7097 58.6737 18.5761C58.9208 18.4426 59.1935 18.3432 59.4918 18.2778C59.793 18.2097 60.0955 18.1557 60.3995 18.1159C60.7972 18.0648 61.1197 18.0264 61.3668 18.0009C61.6168 17.9724 61.7987 17.9256 61.9123 17.8602C62.0288 17.7949 62.087 17.6812 62.087 17.5193V17.4852C62.087 17.0648 61.9719 16.7381 61.7418 16.5051C61.5146 16.2722 61.1694 16.1557 60.7063 16.1557C60.2262 16.1557 59.8498 16.2608 59.5771 16.471C59.3043 16.6812 59.1126 16.9057 59.0018 17.1443L58.0472 16.8034C58.2177 16.4057 58.445 16.096 58.729 15.8744C59.016 15.65 59.3285 15.4937 59.6665 15.4057C60.0075 15.3148 60.3427 15.2693 60.6722 15.2693C60.8825 15.2693 61.1239 15.2949 61.3967 15.346C61.6722 15.3943 61.9379 15.4952 62.1935 15.6486C62.4521 15.802 62.6665 16.0335 62.837 16.3432C63.0075 16.6528 63.0927 17.0676 63.0927 17.5875V21.9H62.087V21.0136H62.0359C61.9677 21.1557 61.854 21.3077 61.695 21.4696C61.5359 21.6315 61.3242 21.7693 61.06 21.883C60.7958 21.9966 60.4734 22.0534 60.0927 22.0534ZM60.2461 21.15C60.6438 21.15 60.979 21.0719 61.2518 20.9156C61.5273 20.7594 61.7347 20.5577 61.8739 20.3105C62.016 20.0634 62.087 19.8034 62.087 19.5307V18.6102C62.0444 18.6614 61.9506 18.7082 61.8058 18.7509C61.6637 18.7906 61.4989 18.8261 61.3114 18.8574C61.1268 18.8858 60.9464 18.9114 60.7702 18.9341C60.5969 18.954 60.4563 18.971 60.3484 18.9852C60.087 19.0193 59.8427 19.0747 59.6154 19.1514C59.391 19.2253 59.2092 19.3375 59.07 19.4881C58.9336 19.6358 58.8654 19.8375 58.8654 20.0932C58.8654 20.4426 58.9947 20.7068 59.2532 20.8858C59.5146 21.0619 59.8455 21.15 60.2461 21.15ZM67.7749 15.3545V16.2068H64.3828V15.3545H67.7749ZM65.3714 13.7864H66.3771V20.025C66.3771 20.3091 66.4183 20.5222 66.5007 20.6642C66.5859 20.8034 66.6939 20.8972 66.8246 20.9455C66.9581 20.9909 67.0987 21.0136 67.2464 21.0136C67.3572 21.0136 67.4482 21.008 67.5192 20.9966C67.5902 20.9824 67.647 20.971 67.6896 20.9625L67.8942 21.8659C67.826 21.8915 67.7308 21.917 67.6087 21.9426C67.4865 21.971 67.3317 21.9852 67.1442 21.9852C66.8601 21.9852 66.5817 21.9241 66.3089 21.802C66.0391 21.6798 65.8146 21.4937 65.6357 21.2437C65.4595 20.9937 65.3714 20.6784 65.3714 20.2977V13.7864ZM71.9616 22.0364C71.331 22.0364 70.7869 21.8972 70.3295 21.6187C69.875 21.3375 69.5241 20.9455 69.277 20.4426C69.0327 19.9369 68.9105 19.3489 68.9105 18.6784C68.9105 18.008 69.0327 17.417 69.277 16.9057C69.5241 16.3915 69.8679 15.9909 70.3082 15.704C70.7514 15.4142 71.2685 15.2693 71.8594 15.2693C72.2003 15.2693 72.5369 15.3261 72.8693 15.4398C73.2017 15.5534 73.5043 15.7381 73.777 15.9937C74.0497 16.2466 74.267 16.5818 74.429 16.9994C74.5909 17.417 74.6719 17.9312 74.6719 18.542V18.9682H69.6264V18.0989H73.6491C73.6491 17.7295 73.5753 17.4 73.4276 17.1102C73.2827 16.8205 73.0753 16.5918 72.8054 16.4241C72.5384 16.2565 72.223 16.1727 71.8594 16.1727C71.4588 16.1727 71.1122 16.2722 70.8196 16.471C70.5298 16.667 70.3068 16.9227 70.1506 17.2381C69.9943 17.5534 69.9162 17.8915 69.9162 18.2523V18.8318C69.9162 19.3261 70.0014 19.7452 70.1719 20.0889C70.3452 20.4298 70.5852 20.6898 70.892 20.8687C71.1989 21.0449 71.5554 21.133 71.9616 21.133C72.2259 21.133 72.4645 21.096 72.6776 21.0222C72.8935 20.9455 73.0795 20.8318 73.2358 20.6812C73.392 20.5278 73.5128 20.3375 73.598 20.1102L74.5696 20.383C74.4673 20.7125 74.2955 21.0023 74.054 21.2523C73.8125 21.4994 73.5142 21.6926 73.1591 21.8318C72.804 21.9682 72.4048 22.0364 71.9616 22.0364ZM76.2017 21.9V15.3545H77.1733V16.3432H77.2415C77.3608 16.0193 77.5767 15.7565 77.8892 15.5548C78.2017 15.3531 78.554 15.2523 78.946 15.2523C79.0199 15.2523 79.1122 15.2537 79.223 15.2565C79.3338 15.2594 79.4176 15.2636 79.4744 15.2693V16.292C79.4403 16.2835 79.3622 16.2707 79.2401 16.2537C79.1207 16.2338 78.9943 16.2239 78.8608 16.2239C78.5426 16.2239 78.2585 16.2906 78.0085 16.4241C77.7614 16.5548 77.5653 16.7366 77.4205 16.9696C77.2784 17.1997 77.2074 17.4625 77.2074 17.758V21.9H76.2017ZM84.1779 21.9V13.1727H89.445V14.1102H85.2347V17.0591H89.1722V17.9966H85.2347V20.9625H89.5131V21.9H84.1779ZM91.2134 21.9V15.3545H92.185V16.3773H92.2702C92.4066 16.0278 92.6268 15.7565 92.9308 15.5634C93.2347 15.3673 93.5998 15.2693 94.0259 15.2693C94.4577 15.2693 94.8171 15.3673 95.104 15.5634C95.3938 15.7565 95.6197 16.0278 95.7816 16.3773H95.8498C96.0174 16.0392 96.2688 15.7707 96.604 15.5719C96.9393 15.3702 97.3413 15.2693 97.81 15.2693C98.3952 15.2693 98.8739 15.4526 99.2461 15.819C99.6183 16.1827 99.8043 16.7494 99.8043 17.5193V21.9H98.7987V17.5193C98.7987 17.0364 98.6665 16.6912 98.4023 16.4838C98.1381 16.2764 97.8271 16.1727 97.4691 16.1727C97.0089 16.1727 96.6523 16.3119 96.3995 16.5903C96.1467 16.8659 96.0202 17.2153 96.0202 17.6386V21.9H94.9975V17.417C94.9975 17.0449 94.8768 16.7452 94.6353 16.5179C94.3938 16.2878 94.0827 16.1727 93.7021 16.1727C93.4407 16.1727 93.1964 16.2423 92.9691 16.3815C92.7447 16.5207 92.5629 16.7139 92.4237 16.9611C92.2873 17.2054 92.2191 17.4881 92.2191 17.8091V21.9H91.2134ZM104.387 22.0364C103.757 22.0364 103.213 21.8972 102.755 21.6187C102.301 21.3375 101.95 20.9455 101.703 20.4426C101.458 19.9369 101.336 19.3489 101.336 18.6784C101.336 18.008 101.458 17.417 101.703 16.9057C101.95 16.3915 102.294 15.9909 102.734 15.704C103.177 15.4142 103.694 15.2693 104.285 15.2693C104.626 15.2693 104.963 15.3261 105.295 15.4398C105.627 15.5534 105.93 15.7381 106.203 15.9937C106.475 16.2466 106.693 16.5818 106.855 16.9994C107.017 17.417 107.098 17.9312 107.098 18.542V18.9682H102.052V18.0989H106.075C106.075 17.7295 106.001 17.4 105.853 17.1102C105.708 16.8205 105.501 16.5918 105.231 16.4241C104.964 16.2565 104.649 16.1727 104.285 16.1727C103.885 16.1727 103.538 16.2722 103.245 16.471C102.956 16.667 102.733 16.9227 102.576 17.2381C102.42 17.5534 102.342 17.8915 102.342 18.2523V18.8318C102.342 19.3261 102.427 19.7452 102.598 20.0889C102.771 20.4298 103.011 20.6898 103.318 20.8687C103.625 21.0449 103.981 21.133 104.387 21.133C104.652 21.133 104.89 21.096 105.103 21.0222C105.319 20.9455 105.505 20.8318 105.662 20.6812C105.818 20.5278 105.939 20.3375 106.024 20.1102L106.995 20.383C106.893 20.7125 106.721 21.0023 106.48 21.2523C106.238 21.4994 105.94 21.6926 105.585 21.8318C105.23 21.9682 104.831 22.0364 104.387 22.0364ZM108.627 21.9V15.3545H109.599V16.3432H109.667C109.787 16.0193 110.002 15.7565 110.315 15.5548C110.627 15.3531 110.98 15.2523 111.372 15.2523C111.446 15.2523 111.538 15.2537 111.649 15.2565C111.76 15.2594 111.843 15.2636 111.9 15.2693V16.292C111.866 16.2835 111.788 16.2707 111.666 16.2537C111.547 16.2338 111.42 16.2239 111.287 16.2239C110.968 16.2239 110.684 16.2906 110.434 16.4241C110.187 16.5548 109.991 16.7366 109.846 16.9696C109.704 17.1997 109.633 17.4625 109.633 17.758V21.9H108.627ZM115.535 24.4909C115.049 24.4909 114.632 24.4284 114.282 24.3034C113.933 24.1812 113.642 24.0193 113.409 23.8176C113.179 23.6187 112.995 23.4057 112.859 23.1784L113.66 22.6159C113.751 22.7352 113.866 22.8716 114.005 23.025C114.145 23.1812 114.335 23.3162 114.576 23.4298C114.821 23.5463 115.14 23.6045 115.535 23.6045C116.064 23.6045 116.5 23.4767 116.843 23.221C117.187 22.9653 117.359 22.5648 117.359 22.0193V20.6898H117.274C117.2 20.8091 117.095 20.9568 116.958 21.133C116.825 21.3062 116.632 21.4611 116.379 21.5974C116.129 21.731 115.791 21.7977 115.365 21.7977C114.836 21.7977 114.362 21.6727 113.941 21.4227C113.524 21.1727 113.193 20.8091 112.949 20.3318C112.707 19.8545 112.586 19.275 112.586 18.5932C112.586 17.9227 112.704 17.3389 112.94 16.8418C113.176 16.3418 113.504 15.9554 113.924 15.6827C114.345 15.4071 114.831 15.2693 115.382 15.2693C115.808 15.2693 116.146 15.3403 116.396 15.4824C116.649 15.6216 116.842 15.7807 116.975 15.9597C117.112 16.1358 117.217 16.2807 117.291 16.3943H117.393V15.3545H118.365V22.0875C118.365 22.65 118.237 23.1074 117.981 23.4597C117.728 23.8148 117.387 24.0747 116.958 24.2395C116.532 24.4071 116.058 24.4909 115.535 24.4909ZM115.501 20.8943C115.904 20.8943 116.245 20.802 116.524 20.6173C116.802 20.4327 117.014 20.167 117.159 19.8205C117.304 19.4739 117.376 19.0591 117.376 18.5761C117.376 18.1045 117.305 17.6884 117.163 17.3276C117.021 16.9668 116.811 16.6841 116.532 16.4795C116.254 16.275 115.91 16.1727 115.501 16.1727C115.075 16.1727 114.72 16.2807 114.436 16.4966C114.154 16.7125 113.943 17.0023 113.801 17.3659C113.662 17.7295 113.592 18.133 113.592 18.5761C113.592 19.0307 113.663 19.4327 113.805 19.7821C113.95 20.1287 114.163 20.4014 114.444 20.6003C114.728 20.7963 115.081 20.8943 115.501 20.8943ZM122.95 22.0364C122.319 22.0364 121.775 21.8972 121.318 21.6187C120.863 21.3375 120.512 20.9455 120.265 20.4426C120.021 19.9369 119.899 19.3489 119.899 18.6784C119.899 18.008 120.021 17.417 120.265 16.9057C120.512 16.3915 120.856 15.9909 121.297 15.704C121.74 15.4142 122.257 15.2693 122.848 15.2693C123.189 15.2693 123.525 15.3261 123.858 15.4398C124.19 15.5534 124.493 15.7381 124.765 15.9937C125.038 16.2466 125.255 16.5818 125.417 16.9994C125.579 17.417 125.66 17.9312 125.66 18.542V18.9682H120.615V18.0989H124.637C124.637 17.7295 124.564 17.4 124.416 17.1102C124.271 16.8205 124.064 16.5918 123.794 16.4241C123.527 16.2565 123.211 16.1727 122.848 16.1727C122.447 16.1727 122.1 16.2722 121.808 16.471C121.518 16.667 121.295 16.9227 121.139 17.2381C120.983 17.5534 120.904 17.8915 120.904 18.2523V18.8318C120.904 19.3261 120.99 19.7452 121.16 20.0889C121.333 20.4298 121.574 20.6898 121.88 20.8687C122.187 21.0449 122.544 21.133 122.95 21.133C123.214 21.133 123.453 21.096 123.666 21.0222C123.882 20.9455 124.068 20.8318 124.224 20.6812C124.38 20.5278 124.501 20.3375 124.586 20.1102L125.558 20.383C125.456 20.7125 125.284 21.0023 125.042 21.2523C124.801 21.4994 124.502 21.6926 124.147 21.8318C123.792 21.9682 123.393 22.0364 122.95 22.0364ZM128.196 17.9625V21.9H127.19V15.3545H128.162V16.3773H128.247C128.4 16.0449 128.633 15.7778 128.946 15.5761C129.258 15.3716 129.662 15.2693 130.156 15.2693C130.599 15.2693 130.987 15.3602 131.319 15.542C131.652 15.721 131.91 15.9937 132.095 16.3602C132.279 16.7239 132.372 17.1841 132.372 17.7409V21.9H131.366V17.8091C131.366 17.2949 131.233 16.8943 130.966 16.6074C130.699 16.3176 130.332 16.1727 129.866 16.1727C129.545 16.1727 129.258 16.2423 129.005 16.3815C128.755 16.5207 128.558 16.7239 128.413 16.9909C128.268 17.258 128.196 17.5818 128.196 17.9625ZM136.869 22.0364C136.255 22.0364 135.727 21.8915 135.283 21.6017C134.84 21.3119 134.499 20.9128 134.261 20.4043C134.022 19.8957 133.903 19.3148 133.903 18.6614C133.903 17.9966 134.025 17.4099 134.269 16.9014C134.516 16.3901 134.86 15.9909 135.3 15.704C135.744 15.4142 136.261 15.2693 136.852 15.2693C137.312 15.2693 137.727 15.3545 138.096 15.525C138.465 15.6955 138.768 15.9341 139.004 16.2409C139.239 16.5477 139.386 16.9057 139.442 17.3148H138.437C138.36 17.0165 138.19 16.7523 137.925 16.5222C137.664 16.2892 137.312 16.1727 136.869 16.1727C136.477 16.1727 136.133 16.275 135.837 16.4795C135.545 16.6812 135.316 16.9668 135.151 17.3361C134.989 17.7026 134.908 18.133 134.908 18.6273C134.908 19.133 134.988 19.5733 135.147 19.9483C135.309 20.3233 135.536 20.6145 135.829 20.8219C136.124 21.0293 136.471 21.133 136.869 21.133C137.13 21.133 137.367 21.0875 137.58 20.9966C137.793 20.9057 137.974 20.775 138.121 20.6045C138.269 20.4341 138.374 20.2295 138.437 19.9909H139.442C139.386 20.3773 139.245 20.7253 139.021 21.0349C138.799 21.3418 138.505 21.5861 138.138 21.7679C137.775 21.9469 137.352 22.0364 136.869 22.0364ZM141.56 24.3545C141.39 24.3545 141.238 24.3403 141.104 24.3119C140.971 24.2864 140.879 24.2608 140.827 24.2352L141.083 23.3489C141.327 23.4114 141.543 23.4341 141.731 23.417C141.918 23.4 142.085 23.3162 142.229 23.1656C142.377 23.0179 142.512 22.7778 142.634 22.4455L142.822 21.9341L140.401 15.3545H141.492L143.299 20.5705H143.367L145.174 15.3545H146.265L143.487 22.8545C143.362 23.1926 143.207 23.4724 143.022 23.694C142.837 23.9185 142.623 24.0847 142.379 24.1926C142.137 24.3006 141.864 24.3545 141.56 24.3545ZM151.104 21.9V13.1727H154.053C154.734 13.1727 155.294 13.2892 155.732 13.5222C156.169 13.7523 156.493 14.069 156.703 14.4724C156.913 14.8759 157.018 15.3347 157.018 15.8489C157.018 16.3631 156.913 16.819 156.703 17.2168C156.493 17.6145 156.17 17.927 155.736 18.1543C155.301 18.3787 154.746 18.4909 154.07 18.4909H151.683V17.5364H154.036C154.501 17.5364 154.876 17.4682 155.161 17.3318C155.447 17.1955 155.655 17.0023 155.783 16.7523C155.913 16.4994 155.979 16.1983 155.979 15.8489C155.979 15.4994 155.913 15.194 155.783 14.9327C155.652 14.6713 155.443 14.4696 155.156 14.3276C154.869 14.1827 154.49 14.1102 154.018 14.1102H152.161V21.9H151.104ZM155.212 17.9795L157.359 21.9H156.132L154.018 17.9795H155.212ZM161.317 22.0364C160.686 22.0364 160.142 21.8972 159.685 21.6187C159.23 21.3375 158.88 20.9455 158.632 20.4426C158.388 19.9369 158.266 19.3489 158.266 18.6784C158.266 18.008 158.388 17.417 158.632 16.9057C158.88 16.3915 159.223 15.9909 159.664 15.704C160.107 15.4142 160.624 15.2693 161.215 15.2693C161.556 15.2693 161.892 15.3261 162.225 15.4398C162.557 15.5534 162.86 15.7381 163.132 15.9937C163.405 16.2466 163.623 16.5818 163.784 16.9994C163.946 17.417 164.027 17.9312 164.027 18.542V18.9682H158.982V18.0989H163.005C163.005 17.7295 162.931 17.4 162.783 17.1102C162.638 16.8205 162.431 16.5918 162.161 16.4241C161.894 16.2565 161.578 16.1727 161.215 16.1727C160.814 16.1727 160.468 16.2722 160.175 16.471C159.885 16.667 159.662 16.9227 159.506 17.2381C159.35 17.5534 159.272 17.8915 159.272 18.2523V18.8318C159.272 19.3261 159.357 19.7452 159.527 20.0889C159.701 20.4298 159.941 20.6898 160.248 20.8687C160.554 21.0449 160.911 21.133 161.317 21.133C161.581 21.133 161.82 21.096 162.033 21.0222C162.249 20.9455 162.435 20.8318 162.591 20.6812C162.748 20.5278 162.868 20.3375 162.953 20.1102L163.925 20.383C163.823 20.7125 163.651 21.0023 163.409 21.2523C163.168 21.4994 162.87 21.6926 162.515 21.8318C162.159 21.9682 161.76 22.0364 161.317 22.0364ZM170.194 16.8205L169.29 17.0761C169.233 16.9256 169.15 16.7793 169.039 16.6372C168.931 16.4923 168.783 16.373 168.596 16.2793C168.408 16.1855 168.168 16.1386 167.875 16.1386C167.475 16.1386 167.141 16.231 166.874 16.4156C166.61 16.5974 166.478 16.829 166.478 17.1102C166.478 17.3602 166.569 17.5577 166.75 17.7026C166.932 17.8474 167.216 17.9682 167.603 18.0648L168.574 18.3034C169.159 18.4455 169.596 18.6628 169.882 18.9554C170.169 19.2452 170.313 19.6187 170.313 20.0761C170.313 20.4511 170.205 20.7864 169.989 21.0818C169.776 21.3773 169.478 21.6102 169.094 21.7807C168.711 21.9511 168.265 22.0364 167.756 22.0364C167.088 22.0364 166.536 21.8915 166.098 21.6017C165.661 21.3119 165.384 20.8886 165.267 20.3318L166.222 20.0932C166.313 20.4455 166.485 20.7097 166.738 20.8858C166.993 21.0619 167.327 21.15 167.739 21.15C168.208 21.15 168.58 21.0506 168.855 20.8517C169.134 20.65 169.273 20.4085 169.273 20.1273C169.273 19.9 169.194 19.7097 169.034 19.5562C168.875 19.4 168.631 19.2835 168.301 19.2068L167.211 18.9511C166.611 18.8091 166.171 18.5889 165.89 18.2906C165.611 17.9895 165.472 17.6131 165.472 17.1614C165.472 16.792 165.576 16.4653 165.783 16.1812C165.993 15.8972 166.279 15.6741 166.64 15.5122C167.003 15.3503 167.415 15.2693 167.875 15.2693C168.523 15.2693 169.032 15.4114 169.401 15.6955C169.773 15.9795 170.037 16.3545 170.194 16.8205ZM171.827 24.3545V15.3545H172.798V16.3943H172.918C172.991 16.2807 173.094 16.1358 173.224 15.9597C173.358 15.7807 173.548 15.6216 173.795 15.4824C174.045 15.3403 174.384 15.2693 174.81 15.2693C175.361 15.2693 175.847 15.4071 176.267 15.6827C176.688 15.9582 177.016 16.3489 177.251 16.8545C177.487 17.3602 177.605 17.9568 177.605 18.6443C177.605 19.3375 177.487 19.9384 177.251 20.4469C177.016 20.9526 176.689 21.3446 176.271 21.623C175.854 21.8986 175.372 22.0364 174.827 22.0364C174.406 22.0364 174.07 21.9668 173.817 21.8276C173.564 21.6855 173.369 21.525 173.233 21.346C173.097 21.1642 172.991 21.0136 172.918 20.8943H172.832V24.3545H171.827ZM172.815 18.6273C172.815 19.1216 172.888 19.5577 173.033 19.9355C173.178 20.3105 173.389 20.6045 173.668 20.8176C173.946 21.0278 174.287 21.133 174.69 21.133C175.111 21.133 175.462 21.0222 175.743 20.8006C176.027 20.5761 176.24 20.275 176.382 19.8972C176.527 19.5165 176.599 19.0932 176.599 18.6273C176.599 18.167 176.528 17.7523 176.386 17.383C176.247 17.0108 176.036 16.7168 175.751 16.5009C175.47 16.2821 175.116 16.1727 174.69 16.1727C174.281 16.1727 173.938 16.2764 173.659 16.4838C173.381 16.6884 173.17 16.9753 173.028 17.3446C172.886 17.7111 172.815 18.1386 172.815 18.6273ZM181.798 22.0364C181.207 22.0364 180.689 21.8957 180.243 21.6145C179.8 21.3332 179.453 20.9398 179.203 20.4341C178.956 19.9284 178.832 19.3375 178.832 18.6614C178.832 17.9795 178.956 17.3844 179.203 16.8759C179.453 16.3673 179.8 15.9724 180.243 15.6912C180.689 15.4099 181.207 15.2693 181.798 15.2693C182.389 15.2693 182.906 15.4099 183.349 15.6912C183.795 15.9724 184.142 16.3673 184.389 16.8759C184.639 17.3844 184.764 17.9795 184.764 18.6614C184.764 19.3375 184.639 19.9284 184.389 20.4341C184.142 20.9398 183.795 21.3332 183.349 21.6145C182.906 21.8957 182.389 22.0364 181.798 22.0364ZM181.798 21.133C182.247 21.133 182.616 21.0179 182.906 20.7878C183.196 20.5577 183.411 20.2551 183.55 19.8801C183.689 19.5051 183.759 19.0989 183.759 18.6614C183.759 18.2239 183.689 17.8162 183.55 17.4384C183.411 17.0605 183.196 16.7551 182.906 16.5222C182.616 16.2892 182.247 16.1727 181.798 16.1727C181.349 16.1727 180.98 16.2892 180.69 16.5222C180.401 16.7551 180.186 17.0605 180.047 17.4384C179.908 17.8162 179.838 18.2239 179.838 18.6614C179.838 19.0989 179.908 19.5051 180.047 19.8801C180.186 20.2551 180.401 20.5577 180.69 20.7878C180.98 21.0179 181.349 21.133 181.798 21.133ZM187.305 17.9625V21.9H186.299V15.3545H187.271V16.3773H187.356C187.51 16.0449 187.743 15.7778 188.055 15.5761C188.368 15.3716 188.771 15.2693 189.265 15.2693C189.708 15.2693 190.096 15.3602 190.429 15.542C190.761 15.721 191.02 15.9937 191.204 16.3602C191.389 16.7239 191.481 17.1841 191.481 17.7409V21.9H190.475V17.8091C190.475 17.2949 190.342 16.8943 190.075 16.6074C189.808 16.3176 189.441 16.1727 188.975 16.1727C188.654 16.1727 188.368 16.2423 188.115 16.3815C187.865 16.5207 187.667 16.7239 187.522 16.9909C187.377 17.258 187.305 17.5818 187.305 17.9625ZM197.955 16.8205L197.052 17.0761C196.995 16.9256 196.911 16.7793 196.8 16.6372C196.692 16.4923 196.545 16.373 196.357 16.2793C196.17 16.1855 195.93 16.1386 195.637 16.1386C195.237 16.1386 194.903 16.231 194.636 16.4156C194.371 16.5974 194.239 16.829 194.239 17.1102C194.239 17.3602 194.33 17.5577 194.512 17.7026C194.694 17.8474 194.978 17.9682 195.364 18.0648L196.336 18.3034C196.921 18.4455 197.357 18.6628 197.644 18.9554C197.931 19.2452 198.075 19.6187 198.075 20.0761C198.075 20.4511 197.967 20.7864 197.751 21.0818C197.538 21.3773 197.239 21.6102 196.856 21.7807C196.472 21.9511 196.026 22.0364 195.518 22.0364C194.85 22.0364 194.298 21.8915 193.86 21.6017C193.423 21.3119 193.146 20.8886 193.029 20.3318L193.984 20.0932C194.075 20.4455 194.246 20.7097 194.499 20.8858C194.755 21.0619 195.089 21.15 195.501 21.15C195.969 21.15 196.342 21.0506 196.617 20.8517C196.896 20.65 197.035 20.4085 197.035 20.1273C197.035 19.9 196.955 19.7097 196.796 19.5562C196.637 19.4 196.393 19.2835 196.063 19.2068L194.972 18.9511C194.373 18.8091 193.933 18.5889 193.651 18.2906C193.373 17.9895 193.234 17.6131 193.234 17.1614C193.234 16.792 193.337 16.4653 193.545 16.1812C193.755 15.8972 194.04 15.6741 194.401 15.5122C194.765 15.3503 195.177 15.2693 195.637 15.2693C196.285 15.2693 196.793 15.4114 197.163 15.6955C197.535 15.9795 197.799 16.3545 197.955 16.8205ZM202.333 22.0364C201.702 22.0364 201.158 21.8972 200.701 21.6187C200.246 21.3375 199.895 20.9455 199.648 20.4426C199.404 19.9369 199.282 19.3489 199.282 18.6784C199.282 18.008 199.404 17.417 199.648 16.9057C199.895 16.3915 200.239 15.9909 200.679 15.704C201.123 15.4142 201.64 15.2693 202.23 15.2693C202.571 15.2693 202.908 15.3261 203.24 15.4398C203.573 15.5534 203.875 15.7381 204.148 15.9937C204.421 16.2466 204.638 16.5818 204.8 16.9994C204.962 17.417 205.043 17.9312 205.043 18.542V18.9682H199.998V18.0989H204.02C204.02 17.7295 203.946 17.4 203.799 17.1102C203.654 16.8205 203.446 16.5918 203.176 16.4241C202.909 16.2565 202.594 16.1727 202.23 16.1727C201.83 16.1727 201.483 16.2722 201.191 16.471C200.901 16.667 200.678 16.9227 200.522 17.2381C200.365 17.5534 200.287 17.8915 200.287 18.2523V18.8318C200.287 19.3261 200.373 19.7452 200.543 20.0889C200.716 20.4298 200.956 20.6898 201.263 20.8687C201.57 21.0449 201.926 21.133 202.333 21.133C202.597 21.133 202.836 21.096 203.049 21.0222C203.265 20.9455 203.451 20.8318 203.607 20.6812C203.763 20.5278 203.884 20.3375 203.969 20.1102L204.941 20.383C204.838 20.7125 204.667 21.0023 204.425 21.2523C204.184 21.4994 203.885 21.6926 203.53 21.8318C203.175 21.9682 202.776 22.0364 202.333 22.0364ZM209.607 14.1102V13.1727H216.152V14.1102H213.408V21.9H212.351V14.1102H209.607ZM219.357 22.0364C218.766 22.0364 218.248 21.8957 217.801 21.6145C217.358 21.3332 217.012 20.9398 216.762 20.4341C216.515 19.9284 216.391 19.3375 216.391 18.6614C216.391 17.9795 216.515 17.3844 216.762 16.8759C217.012 16.3673 217.358 15.9724 217.801 15.6912C218.248 15.4099 218.766 15.2693 219.357 15.2693C219.948 15.2693 220.465 15.4099 220.908 15.6912C221.354 15.9724 221.701 16.3673 221.948 16.8759C222.198 17.3844 222.323 17.9795 222.323 18.6614C222.323 19.3375 222.198 19.9284 221.948 20.4341C221.701 20.9398 221.354 21.3332 220.908 21.6145C220.465 21.8957 219.948 22.0364 219.357 22.0364ZM219.357 21.133C219.806 21.133 220.175 21.0179 220.465 20.7878C220.755 20.5577 220.969 20.2551 221.108 19.8801C221.248 19.5051 221.317 19.0989 221.317 18.6614C221.317 18.2239 221.248 17.8162 221.108 17.4384C220.969 17.0605 220.755 16.7551 220.465 16.5222C220.175 16.2892 219.806 16.1727 219.357 16.1727C218.908 16.1727 218.539 16.2892 218.249 16.5222C217.959 16.7551 217.745 17.0605 217.605 17.4384C217.466 17.8162 217.397 18.2239 217.397 18.6614C217.397 19.0989 217.466 19.5051 217.605 19.8801C217.745 20.2551 217.959 20.5577 218.249 20.7878C218.539 21.0179 218.908 21.133 219.357 21.133ZM226.517 22.0364C225.926 22.0364 225.408 21.8957 224.962 21.6145C224.518 21.3332 224.172 20.9398 223.922 20.4341C223.675 19.9284 223.551 19.3375 223.551 18.6614C223.551 17.9795 223.675 17.3844 223.922 16.8759C224.172 16.3673 224.518 15.9724 224.962 15.6912C225.408 15.4099 225.926 15.2693 226.517 15.2693C227.108 15.2693 227.625 15.4099 228.068 15.6912C228.514 15.9724 228.861 16.3673 229.108 16.8759C229.358 17.3844 229.483 17.9795 229.483 18.6614C229.483 19.3375 229.358 19.9284 229.108 20.4341C228.861 20.9398 228.514 21.3332 228.068 21.6145C227.625 21.8957 227.108 22.0364 226.517 22.0364ZM226.517 21.133C226.966 21.133 227.335 21.0179 227.625 20.7878C227.915 20.5577 228.129 20.2551 228.268 19.8801C228.408 19.5051 228.477 19.0989 228.477 18.6614C228.477 18.2239 228.408 17.8162 228.268 17.4384C228.129 17.0605 227.915 16.7551 227.625 16.5222C227.335 16.2892 226.966 16.1727 226.517 16.1727C226.068 16.1727 225.699 16.2892 225.409 16.5222C225.119 16.7551 224.905 17.0605 224.766 17.4384C224.626 17.8162 224.557 18.2239 224.557 18.6614C224.557 19.0989 224.626 19.5051 224.766 19.8801C224.905 20.2551 225.119 20.5577 225.409 20.7878C225.699 21.0179 226.068 21.133 226.517 21.133ZM232.024 13.1727V21.9H231.018V13.1727H232.024ZM239.712 22.0193C239.138 22.0193 238.644 21.9142 238.229 21.704C237.815 21.4937 237.495 21.2054 237.271 20.8389C237.046 20.4724 236.934 20.0534 236.934 19.5818C236.934 19.2182 237.011 18.8957 237.164 18.6145C237.32 18.3304 237.535 18.0676 237.808 17.8261C238.083 17.5818 238.4 17.3375 238.758 17.0932L240.019 16.1557C240.266 15.9937 240.464 15.8205 240.612 15.6358C240.762 15.4511 240.837 15.2097 240.837 14.9114C240.837 14.6898 240.739 14.4753 240.543 14.2679C240.35 14.0605 240.096 13.9568 239.781 13.9568C239.559 13.9568 239.363 14.0136 239.192 14.1273C239.025 14.2381 238.893 14.3801 238.796 14.5534C238.702 14.7239 238.656 14.9 238.656 15.0818C238.656 15.2864 238.711 15.4937 238.822 15.704C238.935 15.9114 239.079 16.1244 239.252 16.3432C239.428 16.5591 239.61 16.7807 239.798 17.008L243.803 21.9H242.593L239.286 17.9114C238.979 17.542 238.701 17.2068 238.451 16.9057C238.201 16.6045 238.002 16.3077 237.854 16.0151C237.707 15.7224 237.633 15.4057 237.633 15.0648C237.633 14.6727 237.719 14.329 237.893 14.0335C238.069 13.7352 238.315 13.5037 238.63 13.3389C238.948 13.1713 239.32 13.0875 239.746 13.0875C240.184 13.0875 240.56 13.1727 240.876 13.3432C241.191 13.5108 241.434 13.7338 241.604 14.0122C241.775 14.2878 241.86 14.5875 241.86 14.9114C241.86 15.329 241.756 15.6912 241.549 15.998C241.342 16.3048 241.059 16.5903 240.701 16.8545L238.962 18.15C238.57 18.4398 238.305 18.721 238.165 18.9937C238.026 19.2665 237.957 19.4625 237.957 19.5818C237.957 19.8545 238.028 20.1088 238.17 20.3446C238.312 20.5804 238.512 20.7707 238.771 20.9156C239.029 21.0605 239.332 21.133 239.678 21.133C240.008 21.133 240.329 21.0634 240.641 20.9241C240.954 20.7821 241.237 20.5776 241.489 20.3105C241.745 20.0435 241.947 19.7224 242.094 19.3474C242.245 18.9724 242.32 18.5506 242.32 18.0818H243.292C243.292 18.6614 243.225 19.1344 243.092 19.5009C242.958 19.8673 242.808 20.1543 242.64 20.3616C242.472 20.569 242.337 20.7239 242.235 20.8261C242.201 20.8687 242.17 20.9114 242.141 20.954C242.113 20.9966 242.082 21.0392 242.048 21.0818C241.766 21.3972 241.411 21.633 240.982 21.7892C240.553 21.9426 240.13 22.0193 239.712 22.0193ZM255.792 17.5364C255.792 18.4568 255.625 19.2523 255.293 19.9227C254.961 20.5932 254.505 21.1102 253.925 21.4739C253.346 21.8375 252.684 22.0193 251.939 22.0193C251.195 22.0193 250.533 21.8375 249.953 21.4739C249.374 21.1102 248.918 20.5932 248.586 19.9227C248.253 19.2523 248.087 18.4568 248.087 17.5364C248.087 16.6159 248.253 15.8205 248.586 15.15C248.918 14.4795 249.374 13.9625 249.953 13.5989C250.533 13.2352 251.195 13.0534 251.939 13.0534C252.684 13.0534 253.346 13.2352 253.925 13.5989C254.505 13.9625 254.961 14.4795 255.293 15.15C255.625 15.8205 255.792 16.6159 255.792 17.5364ZM254.769 17.5364C254.769 16.7807 254.642 16.1429 254.39 15.623C254.14 15.1031 253.8 14.7097 253.371 14.4426C252.945 14.1756 252.468 14.042 251.939 14.042C251.411 14.042 250.932 14.1756 250.503 14.4426C250.077 14.7097 249.738 15.1031 249.485 15.623C249.235 16.1429 249.11 16.7807 249.11 17.5364C249.11 18.292 249.235 18.9298 249.485 19.4497C249.738 19.9696 250.077 20.3631 250.503 20.6301C250.932 20.8972 251.411 21.0307 251.939 21.0307C252.468 21.0307 252.945 20.8972 253.371 20.6301C253.8 20.3631 254.14 19.9696 254.39 19.4497C254.642 18.9298 254.769 18.292 254.769 17.5364ZM257.432 24.3545V15.3545H258.404V16.3943H258.523C258.597 16.2807 258.699 16.1358 258.83 15.9597C258.963 15.7807 259.154 15.6216 259.401 15.4824C259.651 15.3403 259.989 15.2693 260.415 15.2693C260.966 15.2693 261.452 15.4071 261.873 15.6827C262.293 15.9582 262.621 16.3489 262.857 16.8545C263.093 17.3602 263.211 17.9568 263.211 18.6443C263.211 19.3375 263.093 19.9384 262.857 20.4469C262.621 20.9526 262.294 21.3446 261.877 21.623C261.459 21.8986 260.978 22.0364 260.432 22.0364C260.012 22.0364 259.675 21.9668 259.422 21.8276C259.169 21.6855 258.975 21.525 258.838 21.346C258.702 21.1642 258.597 21.0136 258.523 20.8943H258.438V24.3545H257.432ZM258.421 18.6273C258.421 19.1216 258.493 19.5577 258.638 19.9355C258.783 20.3105 258.995 20.6045 259.273 20.8176C259.551 21.0278 259.892 21.133 260.296 21.133C260.716 21.133 261.067 21.0222 261.348 20.8006C261.632 20.5761 261.846 20.275 261.988 19.8972C262.132 19.5165 262.205 19.0932 262.205 18.6273C262.205 18.167 262.134 17.7523 261.992 17.383C261.853 17.0108 261.641 16.7168 261.357 16.5009C261.076 16.2821 260.722 16.1727 260.296 16.1727C259.887 16.1727 259.543 16.2764 259.265 16.4838C258.986 16.6884 258.776 16.9753 258.634 17.3446C258.492 17.7111 258.421 18.1386 258.421 18.6273ZM267.591 15.3545V16.2068H264.199V15.3545H267.591ZM265.188 13.7864H266.194V20.025C266.194 20.3091 266.235 20.5222 266.317 20.6642C266.402 20.8034 266.51 20.8972 266.641 20.9455C266.775 20.9909 266.915 21.0136 267.063 21.0136C267.174 21.0136 267.265 21.008 267.336 20.9966C267.407 20.9824 267.463 20.971 267.506 20.9625L267.711 21.8659C267.642 21.8915 267.547 21.917 267.425 21.9426C267.303 21.971 267.148 21.9852 266.961 21.9852C266.676 21.9852 266.398 21.9241 266.125 21.802C265.855 21.6798 265.631 21.4937 265.452 21.2437C265.276 20.9937 265.188 20.6784 265.188 20.2977V13.7864ZM269.104 21.9V15.3545H270.11V21.9H269.104ZM269.615 14.2636C269.419 14.2636 269.25 14.1969 269.108 14.0634C268.969 13.9298 268.9 13.7693 268.9 13.5818C268.9 13.3943 268.969 13.2338 269.108 13.1003C269.25 12.9668 269.419 12.9 269.615 12.9C269.811 12.9 269.979 12.9668 270.118 13.1003C270.26 13.2338 270.331 13.3943 270.331 13.5818C270.331 13.7693 270.26 13.9298 270.118 14.0634C269.979 14.1969 269.811 14.2636 269.615 14.2636ZM271.952 21.9V15.3545H272.923V16.3773H273.009C273.145 16.0278 273.365 15.7565 273.669 15.5634C273.973 15.3673 274.338 15.2693 274.764 15.2693C275.196 15.2693 275.555 15.3673 275.842 15.5634C276.132 15.7565 276.358 16.0278 276.52 16.3773H276.588C276.756 16.0392 277.007 15.7707 277.342 15.5719C277.678 15.3702 278.08 15.2693 278.548 15.2693C279.134 15.2693 279.612 15.4526 279.984 15.819C280.357 16.1827 280.543 16.7494 280.543 17.5193V21.9H279.537V17.5193C279.537 17.0364 279.405 16.6912 279.141 16.4838C278.876 16.2764 278.565 16.1727 278.207 16.1727C277.747 16.1727 277.391 16.3119 277.138 16.5903C276.885 16.8659 276.759 17.2153 276.759 17.6386V21.9H275.736V17.417C275.736 17.0449 275.615 16.7452 275.374 16.5179C275.132 16.2878 274.821 16.1727 274.44 16.1727C274.179 16.1727 273.935 16.2423 273.707 16.3815C273.483 16.5207 273.301 16.7139 273.162 16.9611C273.026 17.2054 272.957 17.4881 272.957 17.8091V21.9H271.952ZM282.381 21.9V15.3545H283.387V21.9H282.381ZM282.893 14.2636C282.697 14.2636 282.528 14.1969 282.386 14.0634C282.246 13.9298 282.177 13.7693 282.177 13.5818C282.177 13.3943 282.246 13.2338 282.386 13.1003C282.528 12.9668 282.697 12.9 282.893 12.9C283.089 12.9 283.256 12.9668 283.396 13.1003C283.538 13.2338 283.609 13.3943 283.609 13.5818C283.609 13.7693 283.538 13.9298 283.396 14.0634C283.256 14.1969 283.089 14.2636 282.893 14.2636ZM285.042 21.9V21.133L288.757 16.3602V16.292H285.161V15.3545H290.053V16.1557L286.439 20.8943V20.9625H290.172V21.9H285.042ZM294.278 22.0364C293.647 22.0364 293.103 21.8972 292.646 21.6187C292.191 21.3375 291.841 20.9455 291.593 20.4426C291.349 19.9369 291.227 19.3489 291.227 18.6784C291.227 18.008 291.349 17.417 291.593 16.9057C291.841 16.3915 292.184 15.9909 292.625 15.704C293.068 15.4142 293.585 15.2693 294.176 15.2693C294.517 15.2693 294.853 15.3261 295.186 15.4398C295.518 15.5534 295.821 15.7381 296.093 15.9937C296.366 16.2466 296.583 16.5818 296.745 16.9994C296.907 17.417 296.988 17.9312 296.988 18.542V18.9682H291.943V18.0989H295.966C295.966 17.7295 295.892 17.4 295.744 17.1102C295.599 16.8205 295.392 16.5918 295.122 16.4241C294.855 16.2565 294.539 16.1727 294.176 16.1727C293.775 16.1727 293.429 16.2722 293.136 16.471C292.846 16.667 292.623 16.9227 292.467 17.2381C292.311 17.5534 292.233 17.8915 292.233 18.2523V18.8318C292.233 19.3261 292.318 19.7452 292.488 20.0889C292.662 20.4298 292.902 20.6898 293.208 20.8687C293.515 21.0449 293.872 21.133 294.278 21.133C294.542 21.133 294.781 21.096 294.994 21.0222C295.21 20.9455 295.396 20.8318 295.552 20.6812C295.708 20.5278 295.829 20.3375 295.914 20.1102L296.886 20.383C296.784 20.7125 296.612 21.0023 296.37 21.2523C296.129 21.4994 295.831 21.6926 295.475 21.8318C295.12 21.9682 294.721 22.0364 294.278 22.0364ZM298.518 21.9V15.3545H299.49V16.3432H299.558C299.677 16.0193 299.893 15.7565 300.206 15.5548C300.518 15.3531 300.87 15.2523 301.262 15.2523C301.336 15.2523 301.429 15.2537 301.539 15.2565C301.65 15.2594 301.734 15.2636 301.791 15.2693V16.292C301.757 16.2835 301.679 16.2707 301.556 16.2537C301.437 16.2338 301.311 16.2239 301.177 16.2239C300.859 16.2239 300.575 16.2906 300.325 16.4241C300.078 16.5548 299.882 16.7366 299.737 16.9696C299.595 17.1997 299.524 17.4625 299.524 17.758V21.9H298.518Z" fill="black"/>
<g opacity="0.2">
<g filter="url(#filter0_d_30_89)">
<path d="M256.969 126.893H67.0306C62.783 126.893 60.9004 121.549 64.21 118.887L96.6788 92.7671C99.9654 90.1232 104.057 88.6817 108.275 88.6817H215.725C219.943 88.6817 224.035 90.1232 227.321 92.7671L259.79 118.887C263.1 121.549 261.217 126.893 256.969 126.893Z" stroke="black" stroke-width="3" shape-rendering="crispEdges"/>
</g>
<path d="M233.791 121.805C222.471 121.805 217.845 111.711 211.938 104.302C208.198 99.3624 199.339 90.0201 212.332 91.2013C220.502 91.953 226.901 102.262 231.822 107.523C236.449 112.356 247.08 121.376 233.791 121.913V121.805ZM236.941 118.262C233.791 111.067 218.14 92.7047 208.887 94.6376C215.285 102.906 223.652 121.591 236.941 118.262Z" fill="black"/>
<path d="M90.7479 121.376C77.6559 120.087 89.2672 109.507 93.5 104.782C98.1265 99.95 103.84 90.8733 114 90.8733C125.517 92.8062 113.487 103.336 109.746 108.06C104.234 115.255 100.887 120.946 90.7479 121.161V121.376ZM87.5 117.06C90.3546 119.164 99.4103 116.544 103.84 110.852C106.695 107.201 118.868 94.8402 114 93.9642C104.452 92.2461 90.7479 110.852 87.5 117.06Z" fill="black"/>
<path d="M120.491 121.805C103.659 121.805 124.011 93.9439 131 92.3332C143.403 89.6486 139.096 98.7181 136.832 104.409C133.288 112.893 132.008 121.805 120.294 121.698H120.491V121.805ZM116.357 117.51C122.755 119.98 126.102 118.369 129.449 113.322C131.91 109.564 136.575 99.8267 135 95.424C124.369 95.2093 120.688 109.779 116.16 117.51H116.357Z" fill="black"/>
<path d="M205.934 121.805C195.696 121.805 194.023 114.826 190.676 107.201C188.215 101.403 181.128 92.1678 191.168 91.094C200.028 90.1275 203.571 100.866 207.115 106.557C210.659 112.463 218.14 121.805 205.737 121.805H205.934ZM189.101 94.745C192.153 102.047 196.681 125.027 209.871 117.188C205.835 110.638 199.634 91.8456 189.101 94.745Z" fill="black"/>
<path d="M177.387 122.836C170.103 122.836 168.331 120.044 167.248 114.03C166.166 108.661 163.213 94.7014 169.906 92.2316C180.734 88.1511 181.915 102.648 183.589 108.554C185.558 115.856 188.412 122.836 177.387 122.943V122.836ZM169.709 103.829C170.103 107.48 169.217 115.856 172.367 118.433C176.108 121.547 181.029 120.044 182.112 116.071C182.998 112.849 178.175 97.2786 175.222 95.5605C168.331 91.9095 169.512 100.5 169.709 103.614V103.829Z" fill="black"/>
<path d="M159.866 105.869C159.177 113.816 160.752 122.191 150.121 122.836C140.375 123.48 140.375 119.185 141.95 111.883C143.328 105.869 144.116 94.594 151.302 92.339C161.933 89.1175 159.964 99.7484 159.472 105.869H159.866ZM156.224 106.514C156.617 102.003 159.275 96.2048 153.369 95.2383C147.66 94.2719 147.561 103.614 146.478 107.158C145.1 112.312 140.671 118.97 148.447 119.829C156.913 121.01 155.731 111.56 156.027 106.514H156.224Z" fill="black"/>
</g>
<defs>
<filter id="filter0_d_30_89" x="57.0188" y="87.1817" width="209.962" height="49.2115" filterUnits="userSpaceOnUse" color-interpolation-filters="sRGB">
<feFlood flood-opacity="0" result="BackgroundImageFix"/>
<feColorMatrix in="SourceAlpha" type="matrix" values="0 0 0 0 0 0 0 0 0 0 0 0 0 0 0 0 0 0 127 0" result="hardAlpha"/>
<feOffset dy="4"/>
<feGaussianBlur stdDeviation="2"/>
<feComposite in2="hardAlpha" operator="out"/>
<feColorMatrix type="matrix" values="0 0 0 0 0 0 0 0 0 0 0 0 0 0 0 0 0 0 0.25 0"/>
<feBlend mode="normal" in2="BackgroundImageFix" result="effect1_dropShadow_30_89"/>
<feBlend mode="normal" in="SourceGraphic" in2="effect1_dropShadow_30_89" result="shape"/>
</filter>
</defs>
</svg>
